<svg id="Livello_1" data-name="Livello 1" xmlns="http://www.w3.org/2000/svg" viewBox="0 0 119.94 55.86"><defs><style>.cls-1{fill:#3c4859;}</style></defs><title>addon_icon</title><path class="cls-1" d="M14.16,27.91q0-5.77,0-11.53A0.32,0.32,0,0,1,14.51,16c0.25,0,.5,0,0.75-0.05l3.52-.07c0.55,0,1.1,0,1.66,0a12,12,0,0,1,3.18.44,6.8,6.8,0,0,1,3.25,2,6.58,6.58,0,0,1,1.47,2.89A9.81,9.81,0,0,1,28.57,24a7.74,7.74,0,0,1-1,3.54A6.66,6.66,0,0,1,25,30a9.58,9.58,0,0,1-3.27,1.08,15.5,15.5,0,0,1-2.62.15l-1,0c-0.17,0-.17,0-0.17.18q0,2.54,0,5.07,0,1.52,0,3c0,0.26,0,.3-0.31.3H14.47c-0.27,0-.3,0-0.3-0.31Q14.16,33.7,14.16,27.91ZM18,23.54q0,2,0,4a0.41,0.41,0,0,0,0,.14,0.16,0.16,0,0,0,.09.09l0.43,0h1.58A6.73,6.73,0,0,0,22,27.5a3.54,3.54,0,0,0,2.56-2.59,5.72,5.72,0,0,0,.09-2.48,3.46,3.46,0,0,0-2.16-2.75A6.13,6.13,0,0,0,20,19.26c-0.6,0-1.2,0-1.8.06-0.2,0-.2,0-0.2.21Q18,21.54,18,23.54Z"/><path class="cls-1" d="M30.73,36.95q0-.75,0-1.5s0-.08,0-0.12c0-.2.09-0.24,0.26-0.14a8.06,8.06,0,0,0,4.79,1.26,2.77,2.77,0,0,0,1.28-.36A1.53,1.53,0,0,0,37.58,34,3.28,3.28,0,0,0,36.64,33a15.9,15.9,0,0,0-2.06-1.18,9.47,9.47,0,0,1-2.43-1.66,4.56,4.56,0,0,1-1.37-2.85,5.12,5.12,0,0,1,.5-3,5,5,0,0,1,2.64-2.35,6.4,6.4,0,0,1,2-.47,11.9,11.9,0,0,1,4.16.39l0.42,0.15a0.4,0.4,0,0,1,.27.39q0,1.51,0,3c0,0.2-.14.27-0.34,0.18s-0.55-.28-0.84-0.39a7.63,7.63,0,0,0-2.14-.48,5.38,5.38,0,0,0-1.58,0,2.25,2.25,0,0,0-1,.42,1.43,1.43,0,0,0-.19,2.09,4.7,4.7,0,0,0,1.27,1c0.63,0.35,1.27.67,1.9,1a10,10,0,0,1,2.17,1.52,4.51,4.51,0,0,1,1.44,2.88,5.67,5.67,0,0,1-.44,3,4.81,4.81,0,0,1-2.52,2.4,7.25,7.25,0,0,1-2.54.6,11,11,0,0,1-4.22-.5c-0.3-.1-0.58-0.25-0.87-0.38a0.36,0.36,0,0,1-.22-0.36C30.74,38,30.73,37.48,30.73,36.95Z"/><path class="cls-1" d="M55.74,55.86H0V0.12H55.74V55.86ZM2.32,53.54H53.41V2.44H2.32V53.54Z"/><path class="cls-1" d="M119.94,55.8H64.21V0.06h55.74V55.8h0ZM66.53,53.48h51.09V2.38H66.53V53.48Z"/><path class="cls-1" d="M91.55,15.56H87.44l-7.92,24h3.56l2.14-6.62,8.41-.08,2.16,6.69h3.67ZM86,30.56L89.5,19.32l3.44,11.24H86Z"/><rect class="cls-1" x="101.51" y="21.88" width="3.48" height="17.68"/><rect class="cls-1" x="101.51" y="15.56" width="3.48" height="3.11"/></svg>
