<svg id="Livello_1" data-name="Livello 1" xmlns="http://www.w3.org/2000/svg" xmlns:xlink="http://www.w3.org/1999/xlink" viewBox="0 0 520.6 524"><defs><style>.cls-1,.cls-13,.cls-14,.cls-15{fill:none;}.cls-11,.cls-2,.cls-26,.cls-28,.cls-9{fill:#fff;}.cls-11,.cls-13,.cls-15,.cls-2{stroke:#C1C8D2;}.cls-10,.cls-11,.cls-14,.cls-15,.cls-2,.cls-26,.cls-27{stroke-miterlimit:10;}.cls-2{stroke-width:2px;}.cls-3{fill:#0d1423;}.cls-4{fill:#414656;}.cls-5{fill:#f75176;}.cls-6{fill:#ff796a;}.cls-7{fill:#cdf0d9;}.cls-8{fill:#f2f7e3;}.cls-10,.cls-24,.cls-27{fill:#3C4859;}.cls-10,.cls-27{stroke:#444e58;}.cls-10{stroke-width:0.5px;}.cls-12{fill:#C1C8D2;}.cls-13{stroke-linejoin:round;}.cls-14,.cls-26{stroke:#fff;}.cls-14,.cls-25,.cls-28{opacity:0.2;}.cls-16{clip-path:url(#clip-path);}.cls-17{fill:#2ba2cc;}.cls-18{fill:#00b9f3;}.cls-19{fill:#4cd8b0;}.cls-20{fill:#9bf56c;}.cls-21{fill:#f1f467;}.cls-22{opacity:0.1;}.cls-23{opacity:0.5;}</style><clipPath id="clip-path"><path class="cls-1" d="M29.44,604.33a30.49,30.49,0,0,0,55.67,17.21h0l0.11-.15a8.49,8.49,0,0,0-14.06-9.51l0,0L71,612h0a13.51,13.51,0,1,1,.09-15.29l0,0a8.49,8.49,0,0,0,14.06-9.52l-0.06-.08h0a30.49,30.49,0,0,0-55.72,17.13"/></clipPath></defs><title>mobile</title><path class="cls-2" d="M363.1,427V200c15.87-23,14.73-57,14.73-57h16.8s-1.53,34,14.47,57V427"/><rect class="cls-3" x="0.1" width="269" height="524" rx="28.32" ry="28.32"/><rect class="cls-4" x="10.55" y="35.16" width="248" height="82"/><rect class="cls-5" x="10.55" y="115.16" width="248" height="82"/><rect class="cls-6" x="10.55" y="195.16" width="248" height="82"/><rect class="cls-7" x="10.55" y="275.16" width="248" height="82"/><rect class="cls-8" x="10.55" y="355.16" width="248" height="82"/><rect class="cls-9" x="10.65" y="436.16" width="248" height="44.69"/><path class="cls-10" d="M30.19,459.2v0a3.86,3.86,0,0,1,3.86-4,4.1,4.1,0,0,1,2.63.83,0.44,0.44,0,0,1-.25.79,0.46,0.46,0,0,1-.28-0.11A3.26,3.26,0,0,0,34,456a3,3,0,0,0-2.93,3.16v0a3,3,0,0,0,3,3.2,3.63,3.63,0,0,0,2.22-.77v-1.91H34.29a0.39,0.39,0,0,1,0-.78h2.48a0.44,0.44,0,0,1,.43.44v2.34a0.62,0.62,0,0,1-.3.53,4.7,4.7,0,0,1-2.79.93A3.78,3.78,0,0,1,30.19,459.2Z"/><path class="cls-10" d="M39.26,462.59v-6.82a0.44,0.44,0,0,1,.43-0.44h4.79a0.4,0.4,0,1,1,0,.79H40.13v2.63H44a0.4,0.4,0,0,1,.4.4,0.39,0.39,0,0,1-.4.4H40.13v2.7h4.4a0.4,0.4,0,0,1,0,.79H39.69A0.44,0.44,0,0,1,39.26,462.59Z"/><path class="cls-10" d="M46.74,455.72a0.44,0.44,0,0,1,.43-0.43h0.12a0.53,0.53,0,0,1,.44.25l4.68,6V455.7a0.42,0.42,0,1,1,.85,0v7a0.39,0.39,0,0,1-.4.41h0a0.59,0.59,0,0,1-.45-0.26l-4.77-6.11v6a0.42,0.42,0,1,1-.85,0v-6.93Z"/><path class="cls-10" d="M55.54,462.59v-6.82a0.44,0.44,0,0,1,.43-0.44h4.79a0.4,0.4,0,1,1,0,.79H56.41v2.63h3.85a0.4,0.4,0,0,1,.4.4,0.39,0.39,0,0,1-.4.4H56.41v2.7h4.4a0.4,0.4,0,0,1,0,.79H56A0.44,0.44,0,0,1,55.54,462.59Z"/><path class="cls-10" d="M63,455.77a0.44,0.44,0,0,1,.43-0.44h2.88a3,3,0,0,1,2.19.77,2.13,2.13,0,0,1,.59,1.52v0a2.24,2.24,0,0,1-2.06,2.23L69,462.33a0.47,0.47,0,0,1,.14.32,0.45,0.45,0,0,1-.44.43,0.51,0.51,0,0,1-.41-0.23L66.1,460H63.89v2.61a0.43,0.43,0,1,1-.87,0v-6.88Zm3.23,3.49a1.71,1.71,0,0,0,2-1.58v0c0-.95-0.73-1.52-2-1.52H63.89v3.13h2.37Z"/><path class="cls-10" d="M70.61,462.45l3.12-6.83a0.57,0.57,0,0,1,.55-0.38h0a0.55,0.55,0,0,1,.54.38L78,462.44a0.58,0.58,0,0,1,.05.22,0.42,0.42,0,0,1-.42.42,0.47,0.47,0,0,1-.43-0.32L76.4,461H72.17l-0.8,1.79a0.43,0.43,0,0,1-.42.3,0.39,0.39,0,0,1-.4-0.4A0.5,0.5,0,0,1,70.61,462.45Zm5.45-2.25-1.77-3.94-1.77,3.94h3.54Z"/><path class="cls-10" d="M80.91,456.13H78.67a0.4,0.4,0,0,1-.41-0.4,0.41,0.41,0,0,1,.41-0.41H84a0.41,0.41,0,0,1,.41.41,0.4,0.4,0,0,1-.41.4H81.79v6.51a0.44,0.44,0,0,1-.88,0v-6.51Z"/><path class="cls-10" d="M86.11,462.59v-6.82a0.44,0.44,0,0,1,.43-0.44h4.79a0.4,0.4,0,1,1,0,.79H87v2.63h3.85a0.4,0.4,0,0,1,.4.4,0.39,0.39,0,0,1-.4.4H87v2.7h4.4a0.4,0.4,0,0,1,0,.79H86.54A0.44,0.44,0,0,1,86.11,462.59Z"/><path class="cls-10" d="M94,461.82a0.5,0.5,0,0,1,.52.52v0.22a0.52,0.52,0,1,1-1,0v-0.22A0.51,0.51,0,0,1,94,461.82Zm-0.52-6.17a0.32,0.32,0,0,1,.32-0.35h0.39a0.32,0.32,0,0,1,.32.35l-0.25,5a0.26,0.26,0,0,1-.52,0Z"/><polyline class="cls-2" points="409.1 427 409.1 507 363.1 507 363.1 427"/><line class="cls-11" x1="363.1" y1="427.5" x2="409.1" y2="427.5"/><rect class="cls-12" x="364.1" y="506" width="44" height="4"/><polygon class="cls-12" points="379.1 143 379.1 131.07 393.1 125.27 393.1 143 379.1 143"/><polygon class="cls-2" points="508.1 258.08 495.59 230 482.1 258.08 482.1 485 508.1 485 508.1 258.08"/><rect class="cls-12" x="467.1" y="35" width="49" height="31"/><path class="cls-12" d="M515.1,36V176h-47V36h47m2-2h-51V178h51V34h0Z"/><line class="cls-13" x1="467.1" y1="150.5" x2="517.1" y2="150.5"/><line class="cls-13" x1="467.1" y1="164.5" x2="517.1" y2="164.5"/><circle class="cls-14" cx="134.6" cy="502" r="15.75"/><line class="cls-11" x1="363.1" y1="200.5" x2="409.1" y2="200.5"/><path class="cls-15" d="M507.68,257.7a6,6,0,0,1-6,6.25,6.14,6.14,0,0,1-6.11-6.25,6.48,6.48,0,0,1-6.49,6.25,6.31,6.31,0,0,1-6.49-6.05"/><line class="cls-15" x1="495.59" y1="257.7" x2="495.59" y2="485"/><polygon class="cls-12" points="495.59 230.5 490.26 242 500.94 242 495.59 230.5"/><g class="cls-16"><rect class="cls-17" x="29.44" y="460.86" width="11.45" height="338.95"/><rect class="cls-18" x="40.88" y="460.86" width="11.44" height="338.95"/><rect class="cls-19" x="52.33" y="460.86" width="11.45" height="338.95"/><rect class="cls-20" x="63.77" y="460.86" width="11.44" height="338.95"/><rect class="cls-21" x="75.22" y="460.86" width="11.44" height="338.95"/></g><g class="cls-22"><path class="cls-9" d="M229.43,75.09V71.16a5,5,0,0,0-10,0v3.94A6.67,6.67,0,1,0,229.43,75.09ZM225.27,81v1.82H223.6V81A2.5,2.5,0,1,1,225.27,81Zm2.5-7.28a6.61,6.61,0,0,0-6.67,0V71.16a3.33,3.33,0,1,1,6.67,0v2.57Z"/></g><g class="cls-23"><path class="cls-9" d="M229.43,155.41v-3.94a5,5,0,0,0-10,0v3.94A6.67,6.67,0,1,0,229.43,155.41Zm-4.17,5.91v1.82H223.6v-1.82A2.5,2.5,0,1,1,225.27,161.31Zm2.5-7.28a6.61,6.61,0,0,0-6.67,0v-2.57a3.33,3.33,0,0,1,6.67,0V154Z"/></g><path class="cls-24" d="M229.43,396.34V392.4a5,5,0,0,0-10,0v3.94A6.67,6.67,0,1,0,229.43,396.34Zm-4.17,5.91v1.82H223.6v-1.82A2.5,2.5,0,1,1,225.27,402.25Zm2.5-7.28a6.61,6.61,0,0,0-6.67,0V392.4a3.33,3.33,0,0,1,6.67,0V395Z"/><g class="cls-25"><path class="cls-24" d="M224.43,233.45a6.62,6.62,0,0,0-3.33.9v-2.57a3.33,3.33,0,0,1,6.67,0h1.67a5,5,0,0,0-10,0v3.94A6.66,6.66,0,1,0,224.43,233.45Zm0.83,8.18v1.82H223.6v-1.82A2.5,2.5,0,1,1,225.27,241.63Z"/></g><g class="cls-25"><path class="cls-24" d="M224.43,313.76a6.62,6.62,0,0,0-3.33.9v-2.57a3.33,3.33,0,0,1,6.67,0h1.67a5,5,0,0,0-10,0V316A6.66,6.66,0,1,0,224.43,313.76Zm0.83,8.18v1.82H223.6v-1.82A2.5,2.5,0,1,1,225.27,321.94Z"/></g><path class="cls-24" d="M139.67,456.35V453l-5.44,5.44,5.44,5.44v-3.35c3.3,0.05,4.55.73,5.81,2.88l1,1.67v-1.94C146.47,457.45,142.07,456.46,139.67,456.35Z"/><path class="cls-24" d="M175.2,457.92a2.09,2.09,0,1,0-2.09-2.09,1.55,1.55,0,0,0,.1.52l-3.82,2.2a2.33,2.33,0,0,0-1.52-.63,2.09,2.09,0,1,0,0,4.19,2.33,2.33,0,0,0,1.52-.63l3.82,2.2a1.86,1.86,0,0,0-.1.52,2.09,2.09,0,1,0,2.09-2.09,2.33,2.33,0,0,0-1.52.63l-3.82-2.2a1.36,1.36,0,0,0,0-1l3.82-2.2A2.33,2.33,0,0,0,175.2,457.92Z"/><path class="cls-24" d="M207.6,458.26a4.7,4.7,0,0,0-9.29.18,2.76,2.76,0,0,0,1.06,5.31h7.75A2.77,2.77,0,0,0,207.6,458.26Zm-3.8,1.62v2.21h-1.11v-2.21h-2.21l2.77-2.77,2.77,2.77H203.8Z"/><path class="cls-24" d="M241.77,459.55H229.83a0.63,0.63,0,0,1,0-1.27h11.94A0.63,0.63,0,0,1,241.77,459.55Z"/><path class="cls-24" d="M241.77,455.12H229.83a0.63,0.63,0,0,1,0-1.27h11.94A0.63,0.63,0,0,1,241.77,455.12Z"/><path class="cls-24" d="M241.77,464H229.83a0.63,0.63,0,1,1,0-1.27h11.94A0.63,0.63,0,1,1,241.77,464Z"/><g class="cls-23"><path class="cls-26" d="M36.73,77.9H35.37a0.58,0.58,0,0,1-.58-0.58,0.6,0.6,0,0,1,.58-0.59h1.56l0.63-3.6H36a0.59,0.59,0,0,1-.59-0.58A0.6,0.6,0,0,1,36,72h1.73l0.42-2.5a0.59,0.59,0,1,1,1.17.19L39,72h3.2l0.42-2.5a0.59,0.59,0,1,1,1.17.19L43.36,72h1.34a0.59,0.59,0,0,1,.59.58,0.6,0.6,0,0,1-.59.59H43.16l-0.63,3.6H44a0.59,0.59,0,0,1,.59.58,0.6,0.6,0,0,1-.59.59H42.33l-0.44,2.57a0.59,0.59,0,0,1-.59.53,0.6,0.6,0,0,1-.58-0.71l0.42-2.38h-3.2L37.5,80.47a0.6,0.6,0,0,1-.59.53,0.59,0.59,0,0,1-.58-0.71Zm4.59-1.17L42,73.12H38.77l-0.63,3.6h3.18Z"/><path class="cls-26" d="M48,79.31a0.74,0.74,0,0,1-.22-0.48,0.67,0.67,0,0,1,.66-0.66,0.7,0.7,0,0,1,.49.2,4.08,4.08,0,0,0,3.23,1.51,2.39,2.39,0,0,0,2.6-2.31v0c0-1.48-1.38-2.29-3.33-2.29H51a0.59,0.59,0,0,1-.59-0.58,0.76,0.76,0,0,1,.27-0.53l3.47-3.93H48.87a0.61,0.61,0,0,1-.63-0.59A0.62,0.62,0,0,1,48.87,69h6.49a0.59,0.59,0,0,1,.65.58,1,1,0,0,1-.32.66l-3.5,3.89c2.07,0.17,3.93,1.17,3.93,3.35v0a3.7,3.7,0,0,1-4,3.59A5.37,5.37,0,0,1,48,79.31Z"/><path class="cls-26" d="M59.26,79.31A0.74,0.74,0,0,1,59,78.83a0.67,0.67,0,0,1,.66-0.66,0.7,0.7,0,0,1,.49.2,4.08,4.08,0,0,0,3.23,1.51A2.39,2.39,0,0,0,66,77.58v0c0-1.48-1.38-2.29-3.33-2.29H62.27a0.59,0.59,0,0,1-.59-0.58,0.76,0.76,0,0,1,.27-0.53l3.47-3.93H60.14a0.61,0.61,0,0,1-.63-0.59A0.62,0.62,0,0,1,60.14,69h6.49a0.59,0.59,0,0,1,.65.58,1,1,0,0,1-.32.66l-3.5,3.89c2.07,0.17,3.93,1.17,3.93,3.35v0a3.7,3.7,0,0,1-4,3.59A5.37,5.37,0,0,1,59.26,79.31Z"/><path class="cls-26" d="M70.53,79.31a0.74,0.74,0,0,1-.22-0.48A0.67,0.67,0,0,1,71,78.17a0.7,0.7,0,0,1,.49.2,4.08,4.08,0,0,0,3.23,1.51,2.39,2.39,0,0,0,2.6-2.31v0c0-1.48-1.38-2.29-3.33-2.29H73.54a0.59,0.59,0,0,1-.59-0.58,0.76,0.76,0,0,1,.27-0.53l3.47-3.93H71.41a0.61,0.61,0,0,1-.63-0.59A0.62,0.62,0,0,1,71.41,69h6.49a0.59,0.59,0,0,1,.65.58,1,1,0,0,1-.32.66l-3.5,3.89c2.07,0.17,3.93,1.17,3.93,3.35v0a3.7,3.7,0,0,1-4,3.59A5.37,5.37,0,0,1,70.53,79.31Z"/><path class="cls-26" d="M83,80L88,70.23H82a0.61,0.61,0,0,1-.63-0.61A0.62,0.62,0,0,1,82,69h7a0.59,0.59,0,0,1,.65.59,1.34,1.34,0,0,1-.19.59L84.25,80.52a0.72,0.72,0,0,1-.65.48,0.65,0.65,0,0,1-.68-0.63A1.31,1.31,0,0,1,83,80Z"/><path class="cls-26" d="M97.13,78.09H91.22a0.64,0.64,0,0,1-.68-0.65,1,1,0,0,1,.25-0.65L97,69.25a0.87,0.87,0,0,1,.75-0.41,0.69,0.69,0,0,1,.71.7V77h1.34a0.58,0.58,0,0,1,.58.58,0.57,0.57,0,0,1-.58.54H98.44v2.26a0.65,0.65,0,0,1-1.31,0V78.09Zm0-1.12V70.83l-5,6.14h5Z"/><path class="cls-26" d="M103.34,79.57a0.67,0.67,0,0,1-.27-0.56,0.65,0.65,0,0,1,.65-0.63,0.72,0.72,0,0,1,.46.17,4.55,4.55,0,0,0,3.06,1.34,2.64,2.64,0,0,0,2.86-2.63v0c0-1.5-1.22-2.5-3-2.5a7.33,7.33,0,0,0-2.41.58A1.2,1.2,0,0,1,104,75a0.79,0.79,0,0,1-.29-0.73L104,69.66a0.63,0.63,0,0,1,.65-0.65h5.71a0.62,0.62,0,0,1,0,1.24h-5.13L105,74.06a5.38,5.38,0,0,1,2.35-.53c2.31,0,4.11,1.36,4.11,3.64v0a3.92,3.92,0,0,1-4.23,3.91A5.88,5.88,0,0,1,103.34,79.57Z"/></g><g class="cls-23"><path class="cls-26" d="M36.73,158.11H35.37a0.58,0.58,0,0,1-.58-0.58,0.6,0.6,0,0,1,.58-0.59h1.56l0.63-3.6H36a0.59,0.59,0,0,1-.59-0.58,0.6,0.6,0,0,1,.59-0.59h1.73l0.42-2.5a0.59,0.59,0,1,1,1.17.19L39,152.16h3.2l0.42-2.5a0.59,0.59,0,1,1,1.17.19l-0.39,2.31h1.34a0.59,0.59,0,0,1,.59.58,0.6,0.6,0,0,1-.59.59H43.16l-0.63,3.6H44a0.59,0.59,0,0,1,.59.58,0.6,0.6,0,0,1-.59.59H42.33l-0.44,2.57a0.59,0.59,0,0,1-.59.53,0.6,0.6,0,0,1-.58-0.71l0.42-2.38h-3.2l-0.44,2.57a0.6,0.6,0,0,1-.59.53,0.59,0.59,0,0,1-.58-0.71Zm4.59-1.17,0.63-3.6H38.77l-0.63,3.6h3.18Z"/><path class="cls-26" d="M48.53,160.44V149.9a0.68,0.68,0,0,1,.66-0.68h7.39a0.61,0.61,0,0,1,0,1.22H49.88v4.06h5.95a0.62,0.62,0,0,1,.61.61,0.61,0.61,0,0,1-.61.61H49.88v4.17h6.8a0.61,0.61,0,0,1,0,1.22H49.2A0.68,0.68,0,0,1,48.53,160.44Z"/><path class="cls-26" d="M61.62,160.11c-1-1-1.5-2.18-1.5-4.61v0c0-3.62,1.84-6.46,4.95-6.46a4.93,4.93,0,0,1,3.09,1.05,0.63,0.63,0,0,1,.32.56,0.65,0.65,0,0,1-.65.65,0.7,0.7,0,0,1-.37-0.12,3.85,3.85,0,0,0-2.46-.92c-2.16,0-3.5,2.18-3.48,5.25a3.86,3.86,0,0,1,3.38-1.82c2.21,0,4.11,1.43,4.11,3.65v0a4,4,0,0,1-4.27,4A4.32,4.32,0,0,1,61.62,160.11Zm6-2.7v0a2.65,2.65,0,0,0-2.91-2.55,2.79,2.79,0,0,0-3,2.6v0a2.77,2.77,0,0,0,3,2.67A2.69,2.69,0,0,0,67.64,157.41Z"/><path class="cls-26" d="M71.91,159.52a0.74,0.74,0,0,1-.22-0.48,0.67,0.67,0,0,1,.66-0.66,0.7,0.7,0,0,1,.49.2,4.08,4.08,0,0,0,3.23,1.51,2.39,2.39,0,0,0,2.6-2.31v0c0-1.48-1.38-2.29-3.33-2.29H74.92a0.59,0.59,0,0,1-.59-0.58,0.76,0.76,0,0,1,.27-0.53l3.47-3.93H72.79a0.61,0.61,0,0,1-.63-0.59,0.62,0.62,0,0,1,.63-0.61h6.49a0.59,0.59,0,0,1,.65.58,1,1,0,0,1-.32.66l-3.5,3.89c2.07,0.17,3.93,1.17,3.93,3.35v0a3.7,3.7,0,0,1-4,3.59A5.37,5.37,0,0,1,71.91,159.52Z"/><path class="cls-26" d="M89.38,158.29H83.47a0.64,0.64,0,0,1-.68-0.65A1,1,0,0,1,83,157l6.19-7.55A0.87,0.87,0,0,1,90,149a0.69,0.69,0,0,1,.71.7v7.43H92a0.58,0.58,0,0,1,.58.58,0.57,0.57,0,0,1-.58.54H90.69v2.26a0.65,0.65,0,0,1-1.31,0v-2.26Zm0-1.12V151l-5,6.14h5Z"/><path class="cls-26" d="M96.83,160.11c-1-1-1.5-2.18-1.5-4.61v0c0-3.62,1.84-6.46,4.95-6.46a4.93,4.93,0,0,1,3.09,1.05,0.63,0.63,0,0,1,.32.56,0.65,0.65,0,0,1-.65.65,0.7,0.7,0,0,1-.37-0.12,3.85,3.85,0,0,0-2.46-.92c-2.16,0-3.5,2.18-3.48,5.25a3.86,3.86,0,0,1,3.38-1.82c2.21,0,4.11,1.43,4.11,3.65v0a4,4,0,0,1-4.27,4A4.32,4.32,0,0,1,96.83,160.11Zm6-2.7v0a2.65,2.65,0,0,0-2.91-2.55,2.79,2.79,0,0,0-3,2.6v0a2.77,2.77,0,0,0,3,2.67A2.69,2.69,0,0,0,102.85,157.41Z"/><path class="cls-26" d="M107.22,159.86l4.06-3.59c1.84-1.63,2.48-2.55,2.48-3.74a2.27,2.27,0,0,0-2.4-2.28,3.55,3.55,0,0,0-3,1.73,0.62,0.62,0,0,1-1.1-.37,0.59,0.59,0,0,1,.14-0.37,4.5,4.5,0,0,1,4-2.19,3.43,3.43,0,0,1,3.69,3.37v0c0,1.73-.92,2.8-3,4.62L109,159.89h5.76a0.61,0.61,0,1,1,0,1.22h-7.16a0.63,0.63,0,0,1-.68-0.63A0.77,0.77,0,0,1,107.22,159.86Z"/></g><g class="cls-23"><path class="cls-27" d="M36.73,238.31H35.37a0.58,0.58,0,0,1-.58-0.58,0.6,0.6,0,0,1,.58-0.59h1.56l0.63-3.6H36a0.59,0.59,0,0,1-.59-0.58,0.6,0.6,0,0,1,.59-0.59h1.73l0.42-2.5a0.59,0.59,0,1,1,1.17.19L39,232.37h3.2l0.42-2.5a0.59,0.59,0,1,1,1.17.19l-0.39,2.31h1.34a0.59,0.59,0,0,1,.59.58,0.6,0.6,0,0,1-.59.59H43.16l-0.63,3.6H44a0.59,0.59,0,0,1,.59.58,0.6,0.6,0,0,1-.59.59H42.33l-0.44,2.57a0.59,0.59,0,0,1-.59.53,0.6,0.6,0,0,1-.58-0.71l0.42-2.38h-3.2l-0.44,2.57a0.6,0.6,0,0,1-.59.53,0.59,0.59,0,0,1-.58-0.71Zm4.59-1.17,0.63-3.6H38.77l-0.63,3.6h3.18Z"/><path class="cls-27" d="M48.53,230.1a0.68,0.68,0,0,1,.66-0.68h7.36a0.61,0.61,0,0,1,.61.61,0.62,0.62,0,0,1-.61.63H49.88v4.25h5.92a0.61,0.61,0,0,1,0,1.22H49.88v4.59a0.67,0.67,0,1,1-1.34,0V230.1Z"/><path class="cls-27" d="M60.53,240.64V230.1a0.68,0.68,0,0,1,.66-0.68h7.39a0.61,0.61,0,0,1,0,1.22H61.88v4.06h5.95a0.62,0.62,0,0,1,.61.61,0.61,0.61,0,0,1-.61.61H61.88v4.17h6.8a0.61,0.61,0,0,1,0,1.22H61.2A0.68,0.68,0,0,1,60.53,240.64Z"/><path class="cls-27" d="M72.38,240a0.67,0.67,0,0,1-.27-0.56,0.65,0.65,0,0,1,.65-0.63,0.72,0.72,0,0,1,.46.17,4.55,4.55,0,0,0,3.06,1.34,2.64,2.64,0,0,0,2.86-2.63v0c0-1.5-1.22-2.5-3-2.5a7.33,7.33,0,0,0-2.41.58,1.2,1.2,0,0,1-.68-0.25,0.79,0.79,0,0,1-.29-0.73l0.27-4.66a0.63,0.63,0,0,1,.65-0.65h5.71a0.62,0.62,0,0,1,0,1.24H74.29L74,234.47a5.38,5.38,0,0,1,2.35-.53c2.31,0,4.11,1.36,4.11,3.64v0a3.92,3.92,0,0,1-4.23,3.91A5.88,5.88,0,0,1,72.38,240Z"/><path class="cls-27" d="M84,230.1a0.68,0.68,0,0,1,.66-0.68h7.36a0.61,0.61,0,0,1,.61.61,0.62,0.62,0,0,1-.61.63H85.37v4.25h5.92a0.61,0.61,0,0,1,0,1.22H85.37v4.59a0.67,0.67,0,1,1-1.34,0V230.1Z"/><path class="cls-27" d="M95.64,240a0.67,0.67,0,0,1-.27-0.56,0.65,0.65,0,0,1,.65-0.63,0.72,0.72,0,0,1,.46.17,4.55,4.55,0,0,0,3.06,1.34,2.64,2.64,0,0,0,2.86-2.63v0c0-1.5-1.22-2.5-3-2.5a7.33,7.33,0,0,0-2.41.58,1.2,1.2,0,0,1-.68-0.25,0.79,0.79,0,0,1-.29-0.73l0.27-4.66a0.63,0.63,0,0,1,.65-0.65h5.71a0.62,0.62,0,0,1,0,1.24H97.54l-0.25,3.81a5.38,5.38,0,0,1,2.35-.53c2.31,0,4.11,1.36,4.11,3.64v0a3.92,3.92,0,0,1-4.23,3.91A5.88,5.88,0,0,1,95.64,240Z"/><path class="cls-27" d="M106.89,240a0.67,0.67,0,0,1-.27-0.56,0.65,0.65,0,0,1,.65-0.63,0.72,0.72,0,0,1,.46.17,4.55,4.55,0,0,0,3.06,1.34,2.64,2.64,0,0,0,2.86-2.63v0c0-1.5-1.22-2.5-3-2.5a7.33,7.33,0,0,0-2.41.58,1.2,1.2,0,0,1-.68-0.25,0.79,0.79,0,0,1-.29-0.73l0.27-4.66a0.63,0.63,0,0,1,.65-0.65h5.71a0.62,0.62,0,0,1,0,1.24H108.8l-0.25,3.81a5.38,5.38,0,0,1,2.35-.53c2.31,0,4.11,1.36,4.11,3.64v0a3.92,3.92,0,0,1-4.23,3.91A5.88,5.88,0,0,1,106.89,240Z"/></g><g class="cls-23"><path class="cls-27" d="M36.73,318.52H35.37a0.58,0.58,0,0,1-.58-0.58,0.6,0.6,0,0,1,.58-0.59h1.56l0.63-3.6H36a0.59,0.59,0,0,1-.59-0.58,0.6,0.6,0,0,1,.59-0.59h1.73l0.42-2.5a0.59,0.59,0,1,1,1.17.19L39,312.57h3.2l0.42-2.5a0.59,0.59,0,1,1,1.17.19l-0.39,2.31h1.34a0.59,0.59,0,0,1,.59.58,0.6,0.6,0,0,1-.59.59H43.16l-0.63,3.6H44a0.59,0.59,0,0,1,.59.58,0.6,0.6,0,0,1-.59.59H42.33l-0.44,2.57a0.59,0.59,0,0,1-.59.53,0.6,0.6,0,0,1-.58-0.71l0.42-2.38h-3.2l-0.44,2.57a0.6,0.6,0,0,1-.59.53,0.59,0.59,0,0,1-.58-0.71Zm4.59-1.17,0.63-3.6H38.77l-0.63,3.6h3.18Z"/><path class="cls-27" d="M48,315.62v0a6,6,0,0,1,6-6.15A6.15,6.15,0,0,1,58.27,311a0.74,0.74,0,0,1,.27.54,0.69,0.69,0,0,1-.68.66,0.8,0.8,0,0,1-.44-0.15A4.87,4.87,0,0,0,54,310.67a4.67,4.67,0,0,0-4.61,4.88v0A4.69,4.69,0,0,0,54,320.49,4.88,4.88,0,0,0,57.54,319a0.61,0.61,0,0,1,.42-0.19,0.67,0.67,0,0,1,.65.65,0.63,0.63,0,0,1-.22.48A6.09,6.09,0,0,1,54,321.73,5.93,5.93,0,0,1,48,315.62Z"/><path class="cls-27" d="M63,320.58l4.93-9.72h-6a0.61,0.61,0,0,1-.63-0.61,0.62,0.62,0,0,1,.63-0.61h7a0.59,0.59,0,0,1,.65.59,1.34,1.34,0,0,1-.19.59l-5.13,10.32a0.72,0.72,0,0,1-.65.48,0.65,0.65,0,0,1-.68-0.63A1.31,1.31,0,0,1,63,320.58Z"/><path class="cls-27" d="M72.91,320.85V310.31a0.68,0.68,0,0,1,.66-0.68H81a0.61,0.61,0,0,1,0,1.22H74.25v4.06h6a0.62,0.62,0,0,1,.61.61,0.61,0.61,0,0,1-.61.61h-6v4.17h6.8a0.61,0.61,0,0,1,0,1.22H73.57A0.68,0.68,0,0,1,72.91,320.85Z"/><path class="cls-27" d="M85.15,310.31a0.68,0.68,0,0,1,.66-0.68h7.36a0.61,0.61,0,0,1,.61.61,0.62,0.62,0,0,1-.61.63H86.49v4.25h5.92a0.61,0.61,0,0,1,0,1.22H86.49v4.59a0.67,0.67,0,1,1-1.34,0V310.31Z"/><path class="cls-27" d="M96.37,315.62v0a6,6,0,0,1,6-6.15,6.15,6.15,0,0,1,4.25,1.55,0.74,0.74,0,0,1,.27.54,0.69,0.69,0,0,1-.68.66,0.8,0.8,0,0,1-.44-0.15,4.87,4.87,0,0,0-3.42-1.36,4.67,4.67,0,0,0-4.61,4.88v0a4.69,4.69,0,0,0,4.61,4.91,4.88,4.88,0,0,0,3.54-1.44,0.61,0.61,0,0,1,.42-0.19,0.67,0.67,0,0,1,.65.65,0.63,0.63,0,0,1-.22.48,6.09,6.09,0,0,1-4.42,1.75A5.93,5.93,0,0,1,96.37,315.62Z"/><path class="cls-27" d="M110.29,310.31a0.68,0.68,0,0,1,.66-0.68h7.36a0.61,0.61,0,0,1,.61.61,0.62,0.62,0,0,1-.61.63h-6.68v4.25h5.92a0.61,0.61,0,0,1,0,1.22h-5.92v4.59a0.67,0.67,0,1,1-1.34,0V310.31Z"/></g><g class="cls-23"><path class="cls-27" d="M36.73,398.73H35.37a0.58,0.58,0,0,1-.58-0.58,0.6,0.6,0,0,1,.58-0.59h1.56l0.63-3.6H36a0.59,0.59,0,0,1-.59-0.58,0.6,0.6,0,0,1,.59-0.59h1.73l0.42-2.5a0.59,0.59,0,1,1,1.17.19L39,392.78h3.2l0.42-2.5a0.59,0.59,0,1,1,1.17.19l-0.39,2.31h1.34a0.59,0.59,0,0,1,.59.58,0.6,0.6,0,0,1-.59.59H43.16l-0.63,3.6H44a0.59,0.59,0,0,1,.59.58,0.6,0.6,0,0,1-.59.59H42.33l-0.44,2.57a0.59,0.59,0,0,1-.59.53,0.6,0.6,0,0,1-.58-0.71l0.42-2.38h-3.2l-0.44,2.57a0.6,0.6,0,0,1-.59.53,0.59,0.59,0,0,1-.58-0.71Zm4.59-1.17L42,394H38.77l-0.63,3.6h3.18Z"/><path class="cls-27" d="M48.53,401.06V390.52a0.68,0.68,0,0,1,.66-0.68h7.39a0.61,0.61,0,0,1,0,1.22H49.88v4.06h5.95a0.62,0.62,0,0,1,.61.61,0.61,0.61,0,0,1-.61.61H49.88v4.17h6.8a0.61,0.61,0,0,1,0,1.22H49.2A0.68,0.68,0,0,1,48.53,401.06Z"/><path class="cls-27" d="M60.77,401.06V390.52a0.68,0.68,0,0,1,.66-0.68h7.39a0.61,0.61,0,0,1,0,1.22H62.12v4.06h5.95a0.62,0.62,0,0,1,.61.61,0.61,0.61,0,0,1-.61.61H62.12v4.17h6.8a0.61,0.61,0,0,1,0,1.22H61.44A0.68,0.68,0,0,1,60.77,401.06Z"/><path class="cls-27" d="M73,390.52a0.68,0.68,0,0,1,.66-0.68H81a0.61,0.61,0,0,1,.61.61,0.62,0.62,0,0,1-.61.63H74.35v4.25h5.92a0.61,0.61,0,0,1,0,1.22H74.35v4.59a0.67,0.67,0,1,1-1.34,0V390.52Z"/><path class="cls-27" d="M84.62,400.39a0.67,0.67,0,0,1-.27-0.56A0.65,0.65,0,0,1,85,399.2a0.72,0.72,0,0,1,.46.17,4.55,4.55,0,0,0,3.06,1.34,2.64,2.64,0,0,0,2.86-2.63v0c0-1.5-1.22-2.5-3-2.5a7.33,7.33,0,0,0-2.41.58,1.2,1.2,0,0,1-.68-0.25,0.79,0.79,0,0,1-.29-0.73l0.27-4.66a0.63,0.63,0,0,1,.65-0.65h5.71a0.62,0.62,0,0,1,0,1.24H86.53l-0.25,3.81a5.38,5.38,0,0,1,2.35-.53c2.31,0,4.11,1.36,4.11,3.64v0a3.92,3.92,0,0,1-4.23,3.91A5.88,5.88,0,0,1,84.62,400.39Z"/><path class="cls-27" d="M96.27,390.52a0.68,0.68,0,0,1,.66-0.68h3.47c3.74,0,6.32,2.57,6.32,5.92v0c0,3.35-2.58,5.95-6.32,5.95H96.93a0.68,0.68,0,0,1-.66-0.68V390.52Zm4.13,10a4.61,4.61,0,0,0,4.93-4.67v0a4.63,4.63,0,0,0-4.93-4.71H97.61v9.42h2.79Z"/><path class="cls-27" d="M110.41,390.52a0.68,0.68,0,0,1,.66-0.68h4.4a4.37,4.37,0,0,1,3.11,1.05,2.64,2.64,0,0,1,.76,1.9v0a2.87,2.87,0,0,1-1.89,2.75c1.41,0.42,2.55,1.24,2.55,2.87v0c0,2-1.72,3.25-4.32,3.25h-4.62a0.68,0.68,0,0,1-.66-0.68V390.52Zm4.84,4.62c1.62,0,2.74-.73,2.74-2.12v0c0-1.17-.93-1.94-2.63-1.94h-3.62v4.1h3.52Zm0.48,5.39c1.8,0,2.92-.8,2.92-2.12v0c0-1.29-1.09-2-3.16-2h-3.76v4.2h4Z"/></g><g class="cls-25"><path class="cls-9" d="M101.6,15a2,2,0,1,1-2,2,2,2,0,0,1,2-2m0-1a3,3,0,1,0,3,3,3,3,0,0,0-3-3h0Z"/></g><rect class="cls-28" x="114.77" y="14" width="39.6" height="6" rx="3" ry="3"/></svg>
