<svg id="Livello_1" data-name="Livello 1" xmlns="http://www.w3.org/2000/svg" xmlns:xlink="http://www.w3.org/1999/xlink" viewBox="0 0 120 120"><defs><style>.cls-1,.cls-2{fill:none;}.cls-2{stroke:#94a3b4;stroke-linejoin:round;opacity:0.3;}.cls-3{clip-path:url(#clip-path);}.cls-4{fill:#2ba2cc;}.cls-5{fill:#00b9f3;}.cls-6{fill:#4cd8b0;}.cls-7{fill:#9bf56c;}.cls-8{fill:#f1f467;}</style><clipPath id="clip-path"><path class="cls-1" d="M31.39,60A30.49,30.49,0,0,0,87.06,77.21h0l0.11-.15A8.49,8.49,0,0,0,73.1,67.54l0,0L73,67.71h0a13.51,13.51,0,1,1,.09-15.29l0,0a8.49,8.49,0,0,0,14.06-9.52l-0.06-.08h0A30.49,30.49,0,0,0,31.39,60"/></clipPath></defs><title>mobile_icon</title><rect class="cls-2" x="11.55" y="11.55" width="96.89" height="96.89" rx="22.64" ry="22.64"/><g class="cls-3"><rect class="cls-4" x="31.39" y="-83.47" width="11.45" height="338.95"/><rect class="cls-5" x="42.83" y="-83.47" width="11.44" height="338.95"/><rect class="cls-6" x="54.28" y="-83.47" width="11.45" height="338.95"/><rect class="cls-7" x="65.72" y="-83.47" width="11.44" height="338.95"/><rect class="cls-8" x="77.17" y="-83.47" width="11.44" height="338.95"/></g></svg>
