<svg id="Livello_1" data-name="Livello 1" xmlns="http://www.w3.org/2000/svg" xmlns:xlink="http://www.w3.org/1999/xlink" viewBox="0 0 1403.93 46.5"><defs><style>.cls-1{fill:none;}.cls-2{clip-path:url(#clip-path);}.cls-3{fill:#C1C8D2;}.cls-4{fill:#C1C8D2;}.cls-5{fill:#fff;}</style><clipPath id="clip-path"><rect class="cls-1" x="-831.05" y="-480.58" width="694" height="567"/></clipPath></defs><title>partners</title><g class="cls-2"><path class="cls-3" d="M-689.66-60.34v54a17.76,17.76,0,0,0,18,17.55H-16.42A17.41,17.41,0,0,0,1.19-6.3v-54H-689.66Z"/></g><g id="_2yy2rG.tif" data-name="2yy2rG.tif"><g id="Group"><g id="Shape"><path class="cls-4" d="M411,19.1a0.84,0.84,0,0,0-.17.08c-1.15.87-2.27,1.76-3.44,2.6-0.75.54-1.56,1-2.36,1.46a7,7,0,0,1-1.12.46,2.18,2.18,0,1,0,2.57,3.24c0.17-.26.31-0.53,0.48-0.79a3.54,3.54,0,0,1,.88-1c0.32-.23.62-0.49,0.93-0.73a4,4,0,0,1,.37-0.26,0.52,0.52,0,0,1,.82.09,3.4,3.4,0,0,0,.41-0.74c0.14-.26.26-0.53,0.4-0.8l0.37-.75,0.06,0c0,0.07,0,.14,0,0.21q-0.82,2.86-1.64,5.71c-0.09.31-.23,0.62-0.34,0.93a0.74,0.74,0,0,1-.37.41,2.36,2.36,0,0,0-1.16,1.38A2.48,2.48,0,1,0,412.37,32a2.38,2.38,0,0,0-.25-1.76,0.74,0.74,0,0,1-.11-0.54,17.11,17.11,0,0,1,.88-3.2,3.84,3.84,0,0,1,1-1.48,2.33,2.33,0,0,1,.55-0.37,0.67,0.67,0,0,1,.89.21,3,3,0,0,1,.73,2.2,2.19,2.19,0,0,0,4.3.66,2.18,2.18,0,0,0-.53-2.11c-0.69-.76-1.38-1.51-2-2.29a6.54,6.54,0,0,1-.82-1.21,4.13,4.13,0,0,1,0-4c0.33-.63.71-1.24,1.06-1.86s0.6-1.05.91-1.58a5.72,5.72,0,0,1,1.65-1.8,2.59,2.59,0,0,1,1.57-.54,1.59,1.59,0,0,1,.76.21c0.64,0.36,1.3.7,1.92,1.09a3.31,3.31,0,0,1,1.67,2.91q0,6.63,0,13.26a3.27,3.27,0,0,1-1.71,3c-1.85,1.08-3.72,2.11-5.59,3.17l-5.51,3.11c-0.34.19-.68,0.4-1,0.57a3.43,3.43,0,0,1-3.2,0c-1.13-.58-2.22-1.23-3.32-1.85l-5.84-3.3c-1-.58-2.05-1.13-3.06-1.73a3.26,3.26,0,0,1-1.68-2.88q0-6.66,0-13.33a3.25,3.25,0,0,1,1.69-2.9c1.62-.95,3.26-1.85,4.89-2.77l6.21-3.5c0.34-.19.68-0.4,1-0.57a3.53,3.53,0,0,1,3.43.05c0.5,0.27,1,.57,1.48.83a1.74,1.74,0,0,1,.95,1.59,4.33,4.33,0,0,1-.64,2.44c-0.53.94-1,1.88-1.6,2.8a6.41,6.41,0,0,1-4.45,3.1,10.65,10.65,0,0,1-3.09,0c-0.42,0-.85-0.1-1.27-0.1a1.89,1.89,0,0,0-1.9,1.65,2,2,0,0,0,1.25,2.11,1.89,1.89,0,0,0,2.09-.48,1.29,1.29,0,0,1,.71-0.39c0.65-.1,1.3-0.19,2-0.26a1.35,1.35,0,0,0,.51-0.14l1.74-.95,0.23-.11L411,19.1h0Z"/></g><g id="Shape-2" data-name="Shape"><path class="cls-4" d="M485.69,19L486,18.8a5.53,5.53,0,0,1,3.21-.62,5.06,5.06,0,0,1,1.87.51,4.06,4.06,0,0,1,2.11,2.89,8.55,8.55,0,0,1,.2,1.71c0,2,0,4,0,6a1.86,1.86,0,0,1-.36,1.2,1.59,1.59,0,0,1-1.72.55,1.62,1.62,0,0,1-1.13-1.41c0-.14,0-0.28,0-0.41,0-1.84,0-3.68,0-5.53a4.23,4.23,0,0,0-.08-0.86,1.85,1.85,0,0,0-1.83-1.54A3.56,3.56,0,0,0,486,22a0.65,0.65,0,0,0-.29.59q0,3.32,0,6.65a2.81,2.81,0,0,1-.12.82,1.55,1.55,0,0,1-1.61,1.06,1.64,1.64,0,0,1-1.48-1.44c0-.12,0-0.24,0-0.35q0-6.76,0-13.52a2.51,2.51,0,0,1,.06-0.63A1.57,1.57,0,0,1,484,14a1.59,1.59,0,0,1,1.55,1.12,2.71,2.71,0,0,1,.1.72c0,0.92,0,1.83,0,2.75,0,0.11,0,.22,0,0.38h0Z"/></g><g id="Shape-3" data-name="Shape"><path class="cls-4" d="M496,24.67c0-.72,0-1.45.16-2.16a4.85,4.85,0,0,1,3-3.79,6.25,6.25,0,0,1,5.64.16,4.82,4.82,0,0,1,2.64,3.74,14.51,14.51,0,0,1,.09,3,9.47,9.47,0,0,1-.12,1.27,5,5,0,0,1-3.58,4,6.22,6.22,0,0,1-4.56-.2A5,5,0,0,1,496.08,26c0-.46,0-0.92,0-1.37H496Zm8.3,0c0-.47,0-0.91-0.06-1.34a2.24,2.24,0,0,0-.7-1.5,2.5,2.5,0,0,0-1.82-.64,2.34,2.34,0,0,0-2.44,2.31,21.51,21.51,0,0,0,0,2.26,2.26,2.26,0,0,0,1.36,2.07,2.76,2.76,0,0,0,1.31.22A2.29,2.29,0,0,0,504.24,26c0-.43,0-0.87.07-1.27h0Z"/></g><g id="Shape-4" data-name="Shape"><path class="cls-4" d="M538.81,25.77a2,2,0,0,0,.81,2,2.81,2.81,0,0,0,1.56.51,6.43,6.43,0,0,0,2.39-.36c0.23-.07.46-0.16,0.7-0.23a1.42,1.42,0,0,1,1.67.68,1.45,1.45,0,0,1-.37,1.82,3,3,0,0,1-.68.41,7.52,7.52,0,0,1-2.28.57,8.14,8.14,0,0,1-2.51-.05,5.17,5.17,0,0,1-4.37-4.47,13.58,13.58,0,0,1-.09-2.68,8.8,8.8,0,0,1,.21-1.77,5.21,5.21,0,0,1,4.65-4,6.42,6.42,0,0,1,2.41.17,4.86,4.86,0,0,1,3.7,4.15,10,10,0,0,1,.07,1.94,1.34,1.34,0,0,1-1.32,1.31c-0.15,0-.3,0-0.45,0h-6.08Zm0-2.22,0.39,0h4.09a0.25,0.25,0,0,0,.28-0.28,2.06,2.06,0,0,0-1.51-2.24,3.21,3.21,0,0,0-1.3-.06,2,2,0,0,0-1.67,1.14,2.63,2.63,0,0,0-.28,1.42h0Z"/></g><g id="Shape-5" data-name="Shape"><path class="cls-4" d="M462,25.77h-3c-0.34,0-.37,0-0.36.36a2,2,0,0,0,1.12,1.77,3,3,0,0,0,1.29.33,6.68,6.68,0,0,0,2.54-.42,5.12,5.12,0,0,1,.61-0.19,1.4,1.4,0,0,1,1.6.76,1.45,1.45,0,0,1-.39,1.77,3.25,3.25,0,0,1-1,.55,9.62,9.62,0,0,1-2.34.45,7.68,7.68,0,0,1-2.41-.15,5.23,5.23,0,0,1-4.12-4.92,19.35,19.35,0,0,1,0-2.94,5.22,5.22,0,0,1,4.32-4.88,6.28,6.28,0,0,1,2.91.09,4.88,4.88,0,0,1,3.64,3.85,7.53,7.53,0,0,1,.13,2.26,1.37,1.37,0,0,1-1.31,1.3,3.58,3.58,0,0,1-.38,0H462Zm-1.07-2.2H463c0.26,0,.34-0.07.35-0.31A2.07,2.07,0,0,0,461.76,21a3.26,3.26,0,0,0-1.33,0,2,2,0,0,0-1.55,1.07,2.7,2.7,0,0,0-.32,1.16c0,0.32,0,.34.34,0.34h2Z"/></g><g id="Shape-6" data-name="Shape"><path class="cls-4" d="M471.9,25.77a2,2,0,0,0,.14,1.11,2.15,2.15,0,0,0,1.71,1.29,5.48,5.48,0,0,0,2.68-.22c0.33-.1.67-0.23,1-0.31a1.35,1.35,0,0,1,1.28.32,1.45,1.45,0,0,1,0,2.18,3.06,3.06,0,0,1-1,.55,9.66,9.66,0,0,1-2.4.48,7.53,7.53,0,0,1-2.41-.15,5.12,5.12,0,0,1-3.46-2.56,5.62,5.62,0,0,1-.68-2.6c0-.78,0-1.56,0-2.33a5.49,5.49,0,0,1,1.81-4,5.29,5.29,0,0,1,2.66-1.23,6.15,6.15,0,0,1,3.21.24,4.85,4.85,0,0,1,3.25,3.87,6.28,6.28,0,0,1,.08,2.19,1.34,1.34,0,0,1-1.31,1.21c-0.15,0-.3,0-0.45,0H471.9Zm0-2.22,0.33,0h4.18a0.22,0.22,0,0,0,.23-0.22,2.09,2.09,0,0,0-.95-2.06,2.86,2.86,0,0,0-1.86-.3,2.24,2.24,0,0,0-1.94,2.57h0Z"/></g><g id="Shape-7" data-name="Shape"><path class="cls-4" d="M521.14,24.32c0,1.38,0,2.75,0,4.12a1.6,1.6,0,0,1-.91,1.61,8.89,8.89,0,0,1-3.07,1,14.75,14.75,0,0,1-1.85.12,6.38,6.38,0,0,1-2-.34,4.25,4.25,0,0,1-2.94-3.29,7.86,7.86,0,0,1-.18-1.61c0-2,0-3.9,0-5.85a3.13,3.13,0,0,1,.06-0.63,1.55,1.55,0,0,1,2.35-1,1.61,1.61,0,0,1,.79,1.21,5.18,5.18,0,0,1,0,.64c0,1.84,0,3.69,0,5.53a3.54,3.54,0,0,0,.07.79A1.81,1.81,0,0,0,514.74,28a3.36,3.36,0,0,0,1.8,0,10.35,10.35,0,0,0,1-.32,0.46,0.46,0,0,0,.35-0.53c0-.26,0-0.51,0-0.77q0-3.12,0-6.23a3.83,3.83,0,0,1,0-.6,1.59,1.59,0,0,1,1.55-1.35,1.63,1.63,0,0,1,1.6,1.31,3.41,3.41,0,0,1,.05.64c0,1.38,0,2.77,0,4.15h0Z"/></g><g id="Shape-8" data-name="Shape"><path class="cls-4" d="M528.49,31.2a7.74,7.74,0,0,1-3.52-.81,5.46,5.46,0,0,1-.85-0.57,1.47,1.47,0,0,1-.52-1.52,1.39,1.39,0,0,1,1.87-1,3.73,3.73,0,0,1,.6.3,5.08,5.08,0,0,0,3.3.62A1.85,1.85,0,0,0,530,28a0.85,0.85,0,0,0,.05-1.52,3.79,3.79,0,0,0-1-.35c-0.64-.17-1.29-0.29-1.92-0.46a5,5,0,0,1-2.3-1.25,3.2,3.2,0,0,1-.92-2.69,3.62,3.62,0,0,1,2.63-3.25,6.71,6.71,0,0,1,2.93-.32,7.67,7.67,0,0,1,2.14.47,3.3,3.3,0,0,1,1.07.63,1.51,1.51,0,0,1,0,2.19,1.48,1.48,0,0,1-1.35.29,4.87,4.87,0,0,1-.81-0.3,4.66,4.66,0,0,0-2-.42,3.54,3.54,0,0,0-.75.13,1.17,1.17,0,0,0-.42.22,0.77,0.77,0,0,0,.07,1.28,3,3,0,0,0,1,.38c0.65,0.15,1.31.29,2,.45a5.44,5.44,0,0,1,2.07,1,3,3,0,0,1,1.16,2.12,3.91,3.91,0,0,1-2.94,4.3,7.18,7.18,0,0,1-2.13.3h0Z"/></g><g id="Shape-9" data-name="Shape"><path class="cls-4" d="M436.12,22c0-1.52,0-3,0-4.57a3.22,3.22,0,0,1,.06-0.6,1.58,1.58,0,0,1,1.7-1.28A1.6,1.6,0,0,1,439.33,17c0,0.48,0,1,0,1.44,0,0.31,0,.32.33,0.32h2.65a1.43,1.43,0,0,1,1.35.94,1.42,1.42,0,0,1-1.39,1.88c-0.73,0-1.47,0-2.2,0h-0.51a0.2,0.2,0,0,0-.23.23c0,1.67,0,3.34.05,5a1.2,1.2,0,0,0,.82,1.19,2.06,2.06,0,0,0,.78.11c0.38,0,.75-0.14,1.13-0.2a5.13,5.13,0,0,1,.79-0.09,1.36,1.36,0,0,1,1.31.94,1.41,1.41,0,0,1-.44,1.59,3.24,3.24,0,0,1-.78.43,5.92,5.92,0,0,1-1.62.34,8.16,8.16,0,0,1-1.66,0,3.78,3.78,0,0,1-3.36-2.84,6.88,6.88,0,0,1-.25-1.83q0-2.25,0-4.51h0Z"/></g><g id="Shape-10" data-name="Shape"><path class="cls-4" d="M446.47,25.7c0-1.21,0-2.43,0-3.64a4.37,4.37,0,0,1,.41-1.86,3.44,3.44,0,0,1,2.52-1.92,6.29,6.29,0,0,1,2.1-.1c0.38,0,.76.08,1.14,0.15a2.1,2.1,0,0,1,.95.44,1.54,1.54,0,0,1-.38,2.64,1.9,1.9,0,0,1-1,.05c-0.27,0-.54-0.11-0.82-0.14a3.48,3.48,0,0,0-.76,0,0.91,0.91,0,0,0-.79.73,3.58,3.58,0,0,0-.1.85c0,2.12,0,4.24,0,6.36a2.66,2.66,0,0,1,0,.48A1.57,1.57,0,0,1,448,31.12a1.6,1.6,0,0,1-1.54-1.58c0-.73,0-1.47,0-2.21V25.7h0Z"/></g><g id="Shape-11" data-name="Shape"><path class="cls-4" d="M550.58,19.45c0.06-.24.1-0.42,0.15-0.59a2.32,2.32,0,0,1,.09-0.31,0.43,0.43,0,0,1,.81,0,1.08,1.08,0,0,1,.06.21c0.06,0.4.13,0.8,0.19,1.2a0.52,0.52,0,0,1,0,.13,0.28,0.28,0,0,1-.26.28,0.26,0.26,0,0,1-.31-0.21,3.2,3.2,0,0,1-.07-0.38,1.59,1.59,0,0,0-.11-0.45l-0.12.43a3,3,0,0,1-.11.37,0.35,0.35,0,0,1-.34.24,0.34,0.34,0,0,1-.34-0.25c-0.06-.16-0.09-0.33-0.14-0.49a0.64,0.64,0,0,0-.13-0.27c0,0.2-.08.41-0.09,0.61a0.34,0.34,0,0,1-.36.39c-0.2,0-.28-0.18-0.23-0.48s0.12-.73.18-1.1a1.19,1.19,0,0,1,.05-0.22,0.44,0.44,0,0,1,.43-0.32,0.43,0.43,0,0,1,.41.31c0.07,0.21.11,0.43,0.16,0.65,0,0.05,0,.1.08,0.21h0Z"/></g><g id="Shape-12" data-name="Shape"><path class="cls-4" d="M548.09,18.89l-0.36,0a0.26,0.26,0,0,1-.26-0.27,0.25,0.25,0,0,1,.26-0.27q0.68,0,1.37,0a0.25,0.25,0,0,1,.26.27,0.26,0.26,0,0,1-.26.27H549c-0.27,0-.27,0-0.28.31s0,0.49,0,.73a1.21,1.21,0,0,1,0,.22,0.28,0.28,0,0,1-.28.26,0.27,0.27,0,0,1-.3-0.27c0-.26,0-0.53,0-0.8s0-.27,0-0.44h0Z"/></g></g></g><g id="Group-2" data-name="Group"><g id="Fxfirx"><g id="Group-3" data-name="Group"><g id="Shape-13" data-name="Shape"><path class="cls-4" d="M737.51,14.85a3.29,3.29,0,0,1,2.82-2.41c1.76-.33,3.49-0.79,5.3-1.2a1,1,0,0,1-.09.29,7.76,7.76,0,0,0,1.2,11.22,19.83,19.83,0,0,0,4.78,2.76,38.64,38.64,0,0,1,4,2,3,3,0,0,1,1.43,2.78A2.54,2.54,0,0,1,755,32.83a7.52,7.52,0,0,1-4.28.05c-1.51-.38-3-0.9-4.59-1.4L744,36.07l5.05,1.86a38.36,38.36,0,0,1-4.1.76,2.59,2.59,0,0,1-2.61-2.22c-1-4.37-2-8.73-3-13.1-0.59-2.54-1.2-5.07-1.8-7.61V14.85h0Z"/></g><g id="Shape-14" data-name="Shape"><path class="cls-4" d="M768.54,31.27a3.15,3.15,0,0,1-2.94,2.79c-1,.15-1.91.42-3,0.69a7.86,7.86,0,0,0,1.32-4.7,8.38,8.38,0,0,0-4-7.13,39.42,39.42,0,0,0-4.1-2.13c-1-.51-2.12-1-3.16-1.48a5.08,5.08,0,0,1-1.27-.94A2.58,2.58,0,0,1,752.46,14a8.33,8.33,0,0,1,3.36-.09,37,37,0,0,1,4.25,1.22c0.24-.62.53-1.37,0.81-2.11s0.55-1.52.85-2.33a16,16,0,0,0-5.28-1.8,7.09,7.09,0,0,1,.67-0.25c1-.24,2-0.48,3-0.69a2.76,2.76,0,0,1,3.53,2.23Q766,20.33,768.4,30.54l0.14,0.58v0.15h0Z"/></g></g></g><g id="Shape-15" data-name="Shape"><path class="cls-4" d="M815,27.74a0.56,0.56,0,0,1,.7.44C816.46,30.12,817.26,32,818,34c0.07,0.18.32,0.41,0,.59a0.81,0.81,0,0,1-1-.26c-0.19-.46-0.38-0.92-0.54-1.39a0.5,0.5,0,0,0-.55-0.41c-0.66,0-1.32,0-2,0a0.46,0.46,0,0,0-.51.35c-0.15.45-.32,0.88-0.48,1.32a0.69,0.69,0,0,1-1,.37,0.46,0.46,0,0,1-.06-0.4c0.25-.7.52-1.38,0.79-2.07,0.49-1.27,1-2.53,1.45-3.8a0.61,0.61,0,0,1,.77-0.53h0Zm0,1.17-0.11,0c-0.3.84-.61,1.68-0.89,2.53a0.3,0.3,0,0,0,.15.25c0.59,0,1.2,0,1.88,0l-1-2.77h0Z"/><path class="cls-4" d="M800.68,34.6a0.56,0.56,0,0,1-.66-0.49c-0.14-.42-0.32-0.83-0.46-1.25a0.46,0.46,0,0,0-.51-0.36q-1,0-2,0a0.47,0.47,0,0,0-.51.36c-0.15.45-.32,0.88-0.48,1.33a0.71,0.71,0,0,1-1,.36,0.48,0.48,0,0,1,0-.41c0.51-1.36,1-2.71,1.55-4.07,0.25-.64.5-1.28,0.73-1.92a0.53,0.53,0,0,1,.59-0.42,0.68,0.68,0,0,1,.78.39c0.8,2,1.63,4,2.45,6,0.16,0.4.09,0.48-.48,0.48h0Zm-2.61-5.69H798l-1,2.75h2.13l-1-2.75h0Z"/><path class="cls-4" d="M787.31,15.4V19c0,1.55,0,3.1,0,4.64a0.42,0.42,0,0,1-.51.52c-0.54,0-1.07,0-1.61,0a0.34,0.34,0,0,1-.4-0.41q0-5.65,0-11.3a0.34,0.34,0,0,1,.41-0.41h3.19a0.46,0.46,0,0,1,.48.43q1,3.5,2,7a0.82,0.82,0,0,0,.22.4c0.19-.67.38-1.33,0.57-2,0.5-1.77,1-3.55,1.49-5.33a0.56,0.56,0,0,1,.65-0.49c0.93,0,1.86,0,2.79,0,0.68,0,.68,0,0.68.66V23.38l0.08,0,0.73-1.86q1.75-4.51,3.5-9a0.58,0.58,0,0,1,.63-0.43c0.59,0,1.18,0,1.78,0a0.54,0.54,0,0,1,.57.4q1.17,3,2.36,5.92l0.73,1.82c0.8-.09,1.57-0.19,2.34-0.25a0.62,0.62,0,0,1,.27.33,7.89,7.89,0,0,0,.55,1.15,2.26,2.26,0,0,0,2,.79,2.91,2.91,0,0,0,1.61-.44,1.24,1.24,0,0,0-.17-2.21c-0.91-.29-1.83-0.53-2.75-0.8a5.36,5.36,0,0,1-2.47-1.3,3.16,3.16,0,0,1,.88-5,6.15,6.15,0,0,1,5.46,0,3.29,3.29,0,0,1,1.83,2.77,0.3,0.3,0,0,1-.35.39c-0.61,0-1.21.06-1.81,0.06a0.47,0.47,0,0,1-.37-0.21,1.84,1.84,0,0,0-.9-1.28,3.08,3.08,0,0,0-2.05-.14,2.51,2.51,0,0,0-.74.3,0.81,0.81,0,0,0-.14,1.31,2.06,2.06,0,0,0,.75.45c0.82,0.26,1.67.42,2.48,0.71a9.08,9.08,0,0,1,2.19,1A3.56,3.56,0,0,1,816.7,23a4.46,4.46,0,0,1-3,1.39,6.68,6.68,0,0,1-3.45-.4,11.69,11.69,0,0,1-1.42-.87l0.37,1.06c-0.22,0-.39.05-0.56,0.05-0.57,0-1.13,0-1.69,0a0.53,0.53,0,0,1-.6-0.4c-0.24-.67-0.52-1.33-0.76-2a0.46,0.46,0,0,0-.51-0.35q-2,0-4,0a0.49,0.49,0,0,0-.53.38c-0.23.65-.49,1.28-0.7,1.93a0.56,0.56,0,0,1-.62.44c-1.32,0-2.64,0-4,0-0.5,0-.54,0-0.54-0.56q0-3.9,0-7.79V15.4h-0.07c-0.16.59-.33,1.18-0.49,1.77l-1.71,6.43c-0.16.59-.16,0.59-0.76,0.59s-1,0-1.54,0a0.49,0.49,0,0,1-.56-0.43c-0.63-2.39-1.28-4.78-1.92-7.17l-0.32-1.17-0.06,0h0Zm17.29,3.92-1.52-4.09a3.56,3.56,0,0,0-.43.88c-0.34.93-.69,1.87-1,2.8-0.06.15-.17,0.39,0.13,0.39,0.91,0,1.82,0,2.85,0h0Z"/><path class="cls-4" d="M855.47,25.05c-0.37-.4-0.76-0.78-1.11-1.2s-0.34-.52-1-0.21a7.87,7.87,0,0,1-4.49.65A5.41,5.41,0,0,1,844,19.84a7.13,7.13,0,0,1,.59-5.09,5.28,5.28,0,0,1,4.24-2.84,7.68,7.68,0,0,1,2.92.18,4.21,4.21,0,0,1,3.05,2.74c0.22,0.58.18,0.65-.43,0.77s-1.06.21-1.59,0.28a0.48,0.48,0,0,1-.41-0.19c-0.5-1.53-2.38-1.95-3.81-1.46a3,3,0,0,0-2,2.28,6.19,6.19,0,0,0,.05,3.23A3.22,3.22,0,0,0,850.92,22c0.22-.06.43-0.16,0.64-0.23s0.37-.25.12-0.51c-0.59-.63-1.16-1.27-1.74-1.91-0.07-.08-0.14-0.18-0.27-0.36l7.4-1.17L855.61,25l-0.14,0h0Z"/><path class="cls-4" d="M835.43,16.73v0.47q0,3.19,0,6.38c0,0.58,0,.61-0.62.61h-1.33c-0.5,0-.54,0-0.54-0.56q0-5,0-10c0-.38,0-0.75,0-1.13a0.35,0.35,0,0,1,.41-0.42c0.6,0,1.21,0,1.82,0a0.8,0.8,0,0,1,.53.33c1.4,2.15,2.79,4.32,4.18,6.48a5,5,0,0,0,.66.87V19.36q0-3.37,0-6.74c0-.52,0-0.54.55-0.55s1,0,1.49,0a0.39,0.39,0,0,1,.46.48c0,1.76,0,3.52,0,5.29q0,2.88,0,5.77c0,0.56,0,.59-0.59.59s-1.08,0-1.61,0a0.71,0.71,0,0,1-.69-0.39q-2.18-3.42-4.39-6.82c-0.06-.1-0.14-0.19-0.21-0.29l-0.1,0h0Z"/><path class="cls-4" d="M828.25,18.13q0,2.76,0,5.53c0,0.5,0,.52-0.52.53s-1.08,0-1.61,0a0.39,0.39,0,0,1-.47-0.48c0-1.41,0-2.82,0-4.24,0-.52,0-0.54-0.55-0.54-1.26,0-2.53,0-3.8,0a0.4,0.4,0,0,0-.5.49c0,1.41,0,2.82,0,4.24,0,0.5,0,.53-0.52.53s-1.05,0-1.57,0-0.51-.14-0.5-0.52c0-2.37,0-4.73,0-7.1,0-1.33,0-2.66,0-4a0.42,0.42,0,0,1,.51-0.51c0.52,0,1.05,0,1.57,0a0.42,0.42,0,0,1,.52.51c0,1.21,0,2.42,0,3.63,0,0.54,0,.56.57,0.56,1.29,0,2.58,0,3.87,0,0.33,0,.39-0.12.38-0.4,0-1.25,0-2.5,0-3.75,0-.53,0-0.55.54-0.55s1,0,1.57,0a0.4,0.4,0,0,1,.49.5c0,1.86,0,3.71,0,5.57h0Z"/><path class="cls-4" d="M779.13,13.91a8.91,8.91,0,0,0-1.45.41,0.85,0.85,0,0,0,0,1.55,13,13,0,0,0,1.74.62c0.89,0.29,1.82.5,2.69,0.86a3.22,3.22,0,0,1,2.06,3.38,3.35,3.35,0,0,1-2.2,3.2,6.7,6.7,0,0,1-5.41-.12,4,4,0,0,1-2.2-3.32,0.45,0.45,0,0,1,.26-0.35c0.64-.1,1.28-0.16,1.92-0.2a0.52,0.52,0,0,1,.31.34,2.36,2.36,0,0,0,1.22,1.66,3.18,3.18,0,0,0,2.7,0,1.37,1.37,0,0,0,.87-1.34,1.17,1.17,0,0,0-1-1.1c-0.84-.25-1.69-0.45-2.53-0.7a5.42,5.42,0,0,1-2.45-1.25,3.19,3.19,0,0,1,.51-4.93c1.63-1.08,5-1,6.39.24a3.72,3.72,0,0,1,1.24,2.42,0.29,0.29,0,0,1-.31.37c-0.62,0-1.24.07-1.85,0.07a0.49,0.49,0,0,1-.38-0.25A1.77,1.77,0,0,0,779.16,14l0-.1h0Z"/><path class="cls-4" d="M831.73,18.17q0,2.74,0,5.49c0,0.5,0,.52-0.52.53s-1,0-1.53,0a0.38,0.38,0,0,1-.46-0.45q0-5.63,0-11.25a0.36,0.36,0,0,1,.43-0.42c0.54,0,1.08,0,1.61,0,0.38,0,.48.15,0.48,0.5,0,1.87,0,3.74,0,5.61h0Z"/><path class="cls-4" d="M786.75,29.28c0,1.59,0,3.17,0,4.76,0,0.53-.07.58-0.58,0.56a0.36,0.36,0,0,1-.41-0.42q0-3,0-6.06a0.35,0.35,0,0,1,.41-0.4c1.11,0,1.11,0,1.49,1l1.45,4.15a1.83,1.83,0,0,0,.11.19,2.79,2.79,0,0,0,.16-0.3c0.53-1.51,1.08-3,1.59-4.53a0.66,0.66,0,0,1,.75-0.54c1.13,0,1-.14,1,1q0,2.65,0,5.29a0.54,0.54,0,0,1-.85.53,0.62,0.62,0,0,1-.19-0.47c0-1.41,0-2.83,0-4.24V29.36l-0.07,0c-0.26.73-.53,1.45-0.8,2.18-0.33.9-.66,1.79-1,2.7a0.52,0.52,0,0,1-.58.39,0.55,0.55,0,0,1-.62-0.39c-0.53-1.49-1.08-3-1.62-4.48l-0.17-.48-0.09,0h0Z"/><path class="cls-4" d="M832.85,29.48V29.9c0,1.39,0,2.77,0,4.16a0.48,0.48,0,0,1-.76.5,0.64,0.64,0,0,1-.21-0.49c0-1.71,0-3.42,0-5.13,0-.28,0-0.56,0-0.85a0.33,0.33,0,0,1,.36-0.37,1,1,0,0,1,1.09.56c1,1.43,2,2.83,2.93,4.25l0.26,0.35c0-.23,0-0.37,0-0.5,0-1.39,0-2.77,0-4.15a0.42,0.42,0,0,1,.51-0.51,0.41,0.41,0,0,1,.48.51c0,1.92,0,3.85,0,5.77a0.74,0.74,0,0,1-.22.56,0.79,0.79,0,0,1-1-.25l-1.85-2.65-1.53-2.2-0.09,0h0Z"/><path class="cls-4" d="M808.86,34a3.24,3.24,0,0,1-2.2.71,3.18,3.18,0,0,1-3.2-3.21,6.1,6.1,0,0,1,.18-1.71,3.12,3.12,0,0,1,3.46-2.16,3,3,0,0,1,2.19,1.12,1.17,1.17,0,0,1,.22.38c0.06,0.23.34,0.51,0,.7a0.68,0.68,0,0,1-.93-0.39,1.57,1.57,0,0,0-.46-0.59,2.29,2.29,0,0,0-3.44,1,3.44,3.44,0,0,0,.12,2.75,2.15,2.15,0,0,0,2.52,1.11,5.52,5.52,0,0,0,1.23-.55,0.71,0.71,0,0,0,.28-0.33,0.58,0.58,0,0,0-.59-0.92c-0.21,0-.43,0-0.64,0a0.46,0.46,0,1,1,0-.91c0.62,0,1.24,0,1.85,0a0.36,0.36,0,0,1,.43.43c0,0.89,0,1.77,0,2.66,0,0.2,0,.43-0.27.46a0.44,0.44,0,0,1-.55-0.3c0-.09-0.1-0.18-0.16-0.32h0Z"/><path class="cls-4" d="M840.51,31.13c0-1,0-1.94,0-2.91a0.4,0.4,0,0,1,.48-0.5c1.33,0,2.66,0,4,0a0.39,0.39,0,0,1,.48.47,0.38,0.38,0,0,1-.46.44h-3c-0.5,0-.52,0-0.52.53,0,0.34,0,.67,0,1a0.34,0.34,0,0,0,.41.4c0.94,0,1.88,0,2.83,0a0.4,0.4,0,0,1,.48.47,0.36,0.36,0,0,1-.42.43c-0.94,0-1.88,0-2.83,0-0.34,0-.49.1-0.47,0.46s0,0.86,0,1.29a0.36,0.36,0,0,0,.43.43c1,0,2.1,0,3.15,0,0.53,0,.6.1,0.55,0.62a0.32,0.32,0,0,1-.36.34h-4.36a0.36,0.36,0,0,1-.38-0.44c0-1,0-2,0-3h0Z"/><path class="cls-4" d="M821.1,33.64h2.42c0.45,0,.89,0,1.33,0a0.36,0.36,0,0,1,.42.44c0,0.3,0,.53-0.42.53h-2.54c-0.59,0-1.18,0-1.77,0a1,1,0,0,1-.62-0.18,1.5,1.5,0,0,1,.1-0.92,8.57,8.57,0,0,1,.9-1.13L823.68,29c0.07-.09.13-0.2,0.25-0.38h-0.58c-0.89,0-1.77,0-2.66,0a0.45,0.45,0,0,1,0-.9h3.83a1.12,1.12,0,0,1,.6.14,1.55,1.55,0,0,1-.12.91,19.18,19.18,0,0,1-1.26,1.57l-2.43,3a2.49,2.49,0,0,0-.21.32h0Z"/><path class="cls-4" d="M828.89,31.18c0,1,0,2,0,2.94,0,0.41-.19.5-0.55,0.49a0.42,0.42,0,0,1-.51-0.48q0-3,0-6c0-.38.19-0.44,0.5-0.44s0.56,0,.56.43c0,1,0,2,0,3h0Z"/></g></g><g id="Wired_logo" data-name="Wired logo"><g id="Shape-16" data-name="Shape"><path class="cls-4" d="M230.94,10.19h25.45V36.31H230.94V10.19h0Zm1.87,4.1c1.14,5.31,2.15,10.65,3.25,16,0.2,0.64.08,1.48,0.69,1.9a14.92,14.92,0,0,0,3.37.06c0.61,0,.76-0.7.87-1.16,0.76-3.79,1.59-7.56,2.36-11.35a3.38,3.38,0,0,1,.33-1c0.95,4.06,1.73,8.16,2.61,12.24a1.83,1.83,0,0,0,.57,1.23,14.24,14.24,0,0,0,3.66,0,1.73,1.73,0,0,0,.57-1.23c1.12-5.54,2.16-11.11,3.35-16.64h-3.2c-0.85,4.83-1.53,9.68-2.47,14.49-1.06-4.08-1.76-8.26-2.68-12.38-0.21-.7-0.11-1.73-0.88-2.09a22.73,22.73,0,0,0-2.82,0,1.16,1.16,0,0,0-.76,1.1c-0.85,4.08-1.74,8.16-2.57,12.24a7.51,7.51,0,0,1-.35,1.1q-1.28-7.22-2.4-14.47h-3.48Z"/></g><g id="Shape-17" data-name="Shape"><path class="cls-4" d="M281.61,10.19h25.45V36.31H281.61V10.19h0Zm5.75,4.1V32.2h3.53v-7c1.91,0,3.82,0,5.74,0a1.34,1.34,0,0,1,1.51,1.2c0.09,1.94.25,3.87,0.37,5.8h3.36c-0.32-2.19.07-4.46-.54-6.6-0.32-1.12-1.55-1.38-2.52-1.66,0.72-.38,1.64-0.42,2.16-1.12a5.42,5.42,0,0,0,.81-3.42c0-1.37,0-2.88-.85-4a3.63,3.63,0,0,0-3.07-1.1h-10.5Z"/></g><g id="Shape-18" data-name="Shape"><path class="cls-4" d="M332.35,10.19h25.77V36.31H332.35V10.19h0Zm5.75,4.1V32.2c3,0,5.93,0,8.89,0,1.83,0,4-.38,5.06-2,1.28-2.06,1.09-4.59,1.32-6.92-0.23-2.33,0-4.87-1.32-6.94-1-1.54-3-1.94-4.71-2-3.08-.05-6.16,0-9.24,0h0Z"/></g><g id="Shape-19" data-name="Shape"><path class="cls-4" d="M262.85,14.12h12.29c0,1.07,0,2.14,0,3.21H270.8q0,5.92,0,11.84c1.45,0,2.9,0,4.35,0,0,1.07,0,2.14,0,3.2q-6.15,0-12.29,0,0-1.6,0-3.21h4.35q0-5.92,0-11.84h-4.35c0-1.07,0-2.14,0-3.21h0Z"/></g><g id="Shape-20" data-name="Shape"><path class="cls-4" d="M311.6,14.12q7.54,0,15.07,0c0,2,0,4,0,5.94h-3.26q0-1.37,0-2.74h-5.9c0,1.37,0,2.74,0,4.11h4.76v3h-4.76c0,1.56,0,3.13,0,4.7,2,0,4,0,6.05,0q0-1.56,0-3.12,1.66,0,3.32,0c0,2.11,0,4.22,0,6.33q-7.65,0-15.3,0c0-1.07,0-2.13,0-3.2H314q0-5.92,0-11.85c-0.81,0-1.62,0-2.43,0,0-1.06,0-2.13,0-3.19h0Z"/></g><g id="Shape-21" data-name="Shape"><path class="cls-4" d="M290.88,17.24c2.26,0,4.53-.07,6.79,0,0.87,0.62.7,1.87,0.73,2.81s-0.06,2.22-1.19,2.29c-2.11.11-4.22,0-6.33,0V17.24h0Z"/></g><g id="Shape-22" data-name="Shape"><path class="cls-4" d="M341.62,17.24c1.91,0,3.82,0,5.74,0a2.1,2.1,0,0,1,2.1,1.29c0.6,1.72.35,3.59,0.41,5.38a11.13,11.13,0,0,1-.51,4.28A2.38,2.38,0,0,1,347,29.27h-5.42v-12h0Z"/></g></g><g id="Group-4" data-name="Group"><g id="Shape-23" data-name="Shape"><path class="cls-4" d="M1119.72,6.33a16.92,16.92,0,1,0,16.92,16.92,16.92,16.92,0,0,0-16.92-16.92h0Zm0,24.47a5.1,5.1,0,0,1-4.78-3.33,3.19,3.19,0,0,1-2.43-3.1c0-1.77,3.2-7.06,3.2-7.06s0.54,0.89,1.17,2.07c1.36-2.81,2.84-5.39,2.84-5.39s5.1,8.89,5.1,11.71a5.09,5.09,0,0,1-5.09,5.1h0Z"/><path class="cls-4" d="M1115.51,28.6a3.38,3.38,0,0,1-1.87-.43l0.64-.94a2.28,2.28,0,0,0,1.23.24,3.26,3.26,0,0,0,2.82-3.1c0-.5-1-2.79-3.13-6.79l1-.54c1.49,2.75,3.26,6.26,3.26,7.33a4.38,4.38,0,0,1-4,4.23h0Z"/></g><g id="Shape-24" data-name="Shape"><path class="cls-4" d="M1213,30.24V37.3c-0.57,0-1,.11-1.42.11s-0.86,0-1.38-.08c0-.55-0.08-1-0.09-1.52,0-3.6,0-7.21,0-10.81a2.44,2.44,0,0,0-.31-1.7,12.47,12.47,0,0,0-1.77.78,1.77,1.77,0,0,0-.55.94c-0.17.52-.2,1.09-0.38,1.61a5.94,5.94,0,0,1-5.87,4,5.61,5.61,0,0,1-5.48-4.47,7.34,7.34,0,0,1,1.44-6.86c2.17-2.57,7.4-2.55,9.32.82,0.25,0.43.5,0.86,0.76,1.28a1.21,1.21,0,0,0,.33.21c1.78-.44,1.94-2.18,2.62-3.52,2,0,4-.13,6,0a4.74,4.74,0,0,1,3.87,2.27c0.17,0.28.37,0.54,0.56,0.82,2.39-1.07,3.14-3.09,3.82-5.14H1227a4.89,4.89,0,0,1-.27.85,2,2,0,0,0,.56,2.65,6.64,6.64,0,0,1,2.06,4.91,5.7,5.7,0,0,1-6.75,5.87l-1-.17V28.1c0.62,0,1.21,0,1.8,0a2.81,2.81,0,0,0,2.7-1.86,4.12,4.12,0,0,0-.49-4.39c-0.51-.65-0.87-0.64-1.52-0.12s-1.47,1.16-2.24,1.7a1.81,1.81,0,0,0-.91,1.31c0,0.38-.17.76-0.22,1.14a5.09,5.09,0,0,1-5.31,4.48c-0.77,0-1.53-.08-2.45-0.13h0Zm-8.77-8.09a11.43,11.43,0,0,0-.83-1.3,2.62,2.62,0,0,0-4,.16,5.63,5.63,0,0,0-.1,5.95,2.63,2.63,0,0,0,4.52-.18,10,10,0,0,0,.62-1.69,0.78,0.78,0,0,0-.14-0.33l-1.4-.21c0-.41,0-0.74,0-1.07s0-.64.05-1l1.36-.35h0Zm13.57,2.47-1.43-.38a4.18,4.18,0,0,1,0-1.35,5,5,0,0,1,.89-1.14,4.15,4.15,0,0,0-4.23-1.23c0,0.5-.07.93-0.08,1.36,0,1.6,0,3.21,0,4.81a1.08,1.08,0,0,0,.69,1,2.45,2.45,0,0,0,2.92-.36,3.38,3.38,0,0,0,1.21-2.74h0Z"/><path class="cls-4" d="M1179.13,17.28v-4.5l-1.24-.51v-2h4.1c0,0.49.09,1,.09,1.45,0,4.32,0,8.65,0,13a8.78,8.78,0,0,0,.08,1.66,1.42,1.42,0,0,0,2.13,1.07,2,2,0,0,0,1.18-1.32,8.43,8.43,0,0,0,.24-1.8c0-1.88,0-3.77,0-5.65a2.46,2.46,0,0,1,.08-0.4,4.83,4.83,0,0,1,2.45-.14l0.27,1.85c1.84-.92,3.35-2.55,5.74-2.16,0.2,1.57,0,3.15.1,4.81h-2.29l-0.5-1.82a3.93,3.93,0,0,0-2.85,3.78c-0.05,1.33,0,2.66,0,4,0,0.55,0,1.1,0,1.76-1.19.11-2.29,0.53-3.32-.51-2.09.93-4.15,1.32-5.7-1.13l-0.93.81a4.54,4.54,0,0,1-3.85,1.11,4.43,4.43,0,0,1-3.86-3.58c-1.15-4.19,1.2-8.85,5.91-9.35,0.67-.07,1.31-0.22,2.14-0.36h0Zm0,2.92a4.09,4.09,0,0,0-2.69.09c-2.43,1-3.25,4.19-2.19,6.3a2,2,0,0,0,1.86,1.16,2.89,2.89,0,0,0,2.94-2.39,32.85,32.85,0,0,0,.08-5.16h0Z"/><path class="cls-4" d="M1157.51,25.83a7.57,7.57,0,0,1,0-3.9,6,6,0,0,1,6.09-4.42,5.58,5.58,0,0,1,5.57,5.33,9,9,0,0,1-.19,3.45,5.93,5.93,0,0,1-9,3.4c-0.55-.36-1-0.81-1.66-1.29-0.31.21-.67,0.45-1,0.69a7.76,7.76,0,0,1-7.25,1.17,4.93,4.93,0,0,1-3.36-3.63,8.19,8.19,0,0,1,.25-5.23,5.89,5.89,0,0,1,4.42-3.65,11,11,0,0,1,4.75.12,38.94,38.94,0,0,1,0,4.33h-2.21c-0.07-.37-0.12-0.75-0.22-1.11a1.15,1.15,0,0,0-1.76-.88,3.55,3.55,0,0,0-2.41,2.74,6.89,6.89,0,0,0,0,2.46,3.22,3.22,0,0,0,3,2.68,4.58,4.58,0,0,0,3.58-1c0.46-.39.91-0.8,1.46-1.28h0Zm8.87-1.71a19.17,19.17,0,0,0-.59-2.38A2.46,2.46,0,0,0,1163.4,20a2.51,2.51,0,0,0-2.51,1.56,5.71,5.71,0,0,0-.1,4.8,2.67,2.67,0,0,0,5,0,19,19,0,0,0,.56-2.29h0Z"/></g></g><g id="q3sS0F.tif"><path class="cls-4" d="M1393.93,26.28c0,0.17-.1.34-0.14,0.51a5.74,5.74,0,0,1-3.91,4.53,8.47,8.47,0,0,1-6.41-.27,5.85,5.85,0,0,1-3.49-5.7,5.91,5.91,0,0,1,3.94-5.6,8.59,8.59,0,0,1,6.47.22,5.63,5.63,0,0,1,3.4,4.27c0,0.17.1,0.34,0.14,0.51v1.54Zm-3.92-.75a3.07,3.07,0,1,0-3.07,3.15A3.05,3.05,0,0,0,1390,25.53Z"/><path class="cls-4" d="M1317,20.1V31.34h-4.06V13.71c1.1,0,2.18,0,3.27,0a1,1,0,0,1,.54.39q4.34,5.12,8.66,10.25a2.2,2.2,0,0,0,.69.59V13.75h4V31.38c-1.13,0-2.25,0-3.37,0a1.07,1.07,0,0,1-.51-0.45l-8.61-10.29-0.49-.58Z"/><path class="cls-4" d="M1378.16,28.11a4.72,4.72,0,0,1-2.62,3.11,8.1,8.1,0,0,1-6.3.19,5.89,5.89,0,0,1-3.5-6.16,9,9,0,0,1,.36-1.86c0.9-2.78,3.09-4.19,6.23-4.06a5.91,5.91,0,0,1,6,6.49c0,0.1,0,.19,0,0.37h-8.8a2.7,2.7,0,0,0,4.92,1.78,1,1,0,0,1,.42-0.22,0.39,0.39,0,0,1,.18,0Zm-3.35-4.18a2.52,2.52,0,0,0-2.69-2.05,2.47,2.47,0,0,0-2.42,2.05h5.11Z"/><path class="cls-4" d="M1337.14,19.67c0,2.19,0,4.32,0,6.45a2.22,2.22,0,0,0,1.22,2.2,2.1,2.1,0,0,0,3.22-1.83c0-2,0-4.08,0-6.11,0-.23,0-0.46,0-0.72h3.72a1.07,1.07,0,0,1,.07.27c0,2.41.07,4.83,0,7.24s-1.29,3.85-3.74,4.45a9.21,9.21,0,0,1-5-.11,4.36,4.36,0,0,1-3.23-4.39c0-2.32,0-4.63,0-6.95,0-.15,0-0.31,0-0.5h3.76Z"/><path class="cls-4" d="M1359.66,12.18h3.7V31.45h-3.7V12.18Z"/><path class="cls-4" d="M1357.1,28c0,1,0,2,0,3a0.64,0.64,0,0,1-.33.47c-3.39,1.4-8.7,0-9.12-5.34a6.21,6.21,0,0,1,3.64-6.31,7,7,0,0,1,5.27-.06,0.63,0.63,0,0,1,.47.7c0,0.86,0,1.72,0,2.61-2.43-1-3.84-.78-4.81.6a3.37,3.37,0,0,0,.12,4C1353.36,28.95,1354.88,29.07,1357.1,28Z"/></g><circle class="cls-4" cx="1283.22" cy="22.82" r="15.04"/><path class="cls-5" d="M1270.57,39.1a1.88,1.88,0,0,1-1.39-.5l0.92-.92c0.31,0.31,1.87.26,5.58-2.16a72.78,72.78,0,0,0,11-9.24,72.78,72.78,0,0,0,9.24-11c2.41-3.71,2.47-5.27,2.16-5.58l0.92-.92c1.09,1.09.42,3.51-2,7.2a74.09,74.09,0,0,1-9.41,11.22,74.08,74.08,0,0,1-11.22,9.41C1273.83,38.27,1271.88,39.1,1270.57,39.1Z"/><path class="cls-4" d="M1269.7,38.24a1.88,1.88,0,0,1-1.39-.5c-0.73-.73-0.68-2,0.15-3.91a31.75,31.75,0,0,1,3.61-5.82l1,0.78c-3.74,5-4.37,7.54-3.88,8,0.31,0.31,1.87.26,5.58-2.16a72.78,72.78,0,0,0,11-9.24,72.78,72.78,0,0,0,9.24-11c2.41-3.71,2.47-5.27,2.16-5.58s-2.72.05-7.17,3.25L1289.29,11c4.62-3.32,7.6-4.37,8.85-3.12,1.09,1.09.42,3.51-2,7.21a74.09,74.09,0,0,1-9.41,11.22,74.08,74.08,0,0,1-11.22,9.41C1273,37.4,1271,38.24,1269.7,38.24Z"/><path class="cls-5" d="M1295.88,39.1c-1.32,0-3.26-.83-5.81-2.49a74.08,74.08,0,0,1-11.22-9.41A74.09,74.09,0,0,1,1269.43,16c-2.41-3.69-3.08-6.12-2-7.2l0.92,0.92c-0.31.31-.26,1.87,2.16,5.58a72.78,72.78,0,0,0,9.24,11,72.78,72.78,0,0,0,11,9.24c3.71,2.41,5.27,2.47,5.58,2.16l0.92,0.92A1.88,1.88,0,0,1,1295.88,39.1Z"/><path class="cls-4" d="M1296.74,38.24c-1.32,0-3.26-.83-5.81-2.49a74.08,74.08,0,0,1-11.22-9.41,74.08,74.08,0,0,1-9.41-11.22c-2.41-3.69-3.08-6.12-2-7.2,0.79-.79,2.2-0.67,4.34.34a37.57,37.57,0,0,1,6.55,4.31l-0.8,1c-5.68-4.47-8.64-5.29-9.17-4.76-0.31.31-.26,1.87,2.16,5.58a72.78,72.78,0,0,0,9.24,11,72.78,72.78,0,0,0,11,9.24c3.71,2.41,5.27,2.47,5.58,2.16s0.23-1-.42-2.48a30.64,30.64,0,0,0-3.48-5.58l1-.78c2.65,3.53,5.45,8.08,3.78,9.75A1.88,1.88,0,0,1,1296.74,38.24Z"/><g id="XMtenA.tif"><path class="cls-4" d="M1006.75,31.6c-1.92-.18-2.68-1-2.68-2.6,0-3.55,0-7.09,0-10.91l2.41,0.93c2.64-1.19,5.32-1.41,7.93.52A7.47,7.47,0,0,1,1020,18.2a4.13,4.13,0,0,1,4,4.42c0,2.63,0,5.25,0,7.88,0,0.36,0,.72,0,1.09-1.88-.1-2.66-0.9-2.66-2.59,0-2.07,0-4.14,0-6.21-0.08-2.46-2-3.72-4.19-2.79a2.66,2.66,0,0,0-1.74,2.69c0,2.52,0,5,0,7.55,0,0.44,0,.87,0,1.68l-2.67-1.4c0-2.71,0-5.26,0-7.8a2.85,2.85,0,0,0-4.25-2.67,2.46,2.46,0,0,0-1.62,2.42c0,2.66,0,5.33,0,8C1006.83,30.82,1006.78,31.21,1006.75,31.6Z"/><path class="cls-4" d="M986.7,19l2.13-.92a62.12,62.12,0,0,1-.06,6.7c-0.18,1.64-2,2.78-4,2.86-1.46.06-2.92-.12-4.53-0.2a1.11,1.11,0,0,0,.53,1.9,10.46,10.46,0,0,0,2.48.43,29.8,29.8,0,0,1,3.61.42,3.37,3.37,0,0,1,2.74,3.55c0,1.66-.91,2.75-2.79,3.24a11.21,11.21,0,0,1-6.56,0c-1.94-.66-2.94-2.34-2.34-4a9.31,9.31,0,0,1,1.3-1.92c-1.46-2.13-1.48-2.7,0-4.53-1.33-1.4-1.33-3.18-1.05-4.95a4.65,4.65,0,0,1,1-2C980.25,18.11,984.37,17.42,986.7,19Zm-6,3.93c0,2.16.89,3.18,2.76,3.21s2.87-1,2.87-3.21c0-.22,0-0.44,0-0.66a2.49,2.49,0,0,0-2.69-2.59C981.6,19.66,980.68,20.68,980.69,23Zm2.24,12.92a23.9,23.9,0,0,0,2.37-.39,1.74,1.74,0,0,0,1.45-1.72A1.6,1.6,0,0,0,985.33,32a24.17,24.17,0,0,0-4.59,0,1.41,1.41,0,0,0-1.26,1.68,2.75,2.75,0,0,0,1.17,1.67A7.6,7.6,0,0,0,982.92,35.88Z"/><path class="cls-4" d="M1048.49,18.74V12.16c1.9,0.06,2.75.9,2.75,2.6q0,7.81,0,15.62v1.47l-2.51-1.09a7.31,7.31,0,0,1-5.52.72,3.84,3.84,0,0,1-3.27-4.11c0-1.74,0-3.47,0-5.21a3.73,3.73,0,0,1,2.78-3.71C1044.15,18,1045.62,18,1048.49,18.74Zm0,6.16c0-.81,0-1.62,0-2.43a2.75,2.75,0,0,0-2.86-2.73,2.63,2.63,0,0,0-3,2.48,51.48,51.48,0,0,0,0,5.42,2.58,2.58,0,0,0,3,2.43,2.69,2.69,0,0,0,2.84-2.73C1048.5,26.52,1048.49,25.71,1048.49,24.9Z"/><path class="cls-4" d="M946.48,31.86l-2.34-1.11a7.32,7.32,0,0,1-5.74.69,3.91,3.91,0,0,1-3.12-4q0-2.49,0-5a3.84,3.84,0,0,1,2.92-4,8.42,8.42,0,0,1,5.69.38v-7l2.59,1.35V31.86ZM943.9,25c0-.85,0-1.7,0-2.55A2.81,2.81,0,0,0,941,19.73a2.55,2.55,0,0,0-2.88,2.42,49.26,49.26,0,0,0,0,5.53A2.5,2.5,0,0,0,941,30.06a2.74,2.74,0,0,0,2.94-2.66C943.92,26.59,943.9,25.78,943.9,25Z"/><path class="cls-4" d="M1038,24.95c0,0.89,0,1.77,0,2.66a3.54,3.54,0,0,1-2.51,3.54,10.36,10.36,0,0,1-7,0,3.71,3.71,0,0,1-2.64-3.71c0-1.7-.06-3.4,0-5.1a3.82,3.82,0,0,1,3.12-3.91,11.43,11.43,0,0,1,5.92,0,3.77,3.77,0,0,1,3.08,4c0,0.81,0,1.63,0,2.44h0Zm-2.66,0h0c0-.85.05-1.7,0-2.55a2.46,2.46,0,0,0-2.31-2.55,6.73,6.73,0,0,0-2.2,0,2.34,2.34,0,0,0-2.16,2.53c0,1.74,0,3.48,0,5.21a2.3,2.3,0,0,0,1.94,2.37,7,7,0,0,0,2.08.1c1.84-.21,2.58-1.05,2.65-2.92C1035.36,26.39,1035.34,25.65,1035.34,24.91Z"/><path class="cls-4" d="M1053.12,24.82c0-.66,0-1.33,0-2,0-2.59,1-4,3.54-4.41a17,17,0,0,1,5.36.08c2.21,0.38,3.21,1.88,3.23,4.13q0,2.27,0,4.54a3.84,3.84,0,0,1-3.08,4.16,10.62,10.62,0,0,1-6.22-.07,3.72,3.72,0,0,1-2.83-3.89C1053.11,26.52,1053.12,25.67,1053.12,24.82Zm9.48,0.07c0-.9-0.06-1.86-0.13-2.82a2.19,2.19,0,0,0-1.87-2.17,7.81,7.81,0,0,0-2.41-.11,2.3,2.3,0,0,0-2.29,2.4,43.77,43.77,0,0,0,0,5.42,2.26,2.26,0,0,0,2.31,2.37,7.86,7.86,0,0,0,2.3-.05,2.24,2.24,0,0,0,2-2.21C1062.54,26.81,1062.55,25.89,1062.59,24.9Z"/><path class="cls-4" d="M971.48,20.19l-1.11,2.57c-1.13-2.43-2.82-3.49-5.23-3.28A2.1,2.1,0,0,0,963,21.24a1.77,1.77,0,0,0,.89,1.34c1.22,0.52,2.53.79,3.79,1.22a10.81,10.81,0,0,1,2.63,1.12,3.6,3.6,0,0,1,.44,5.52c-2.26,2.2-7.95,1.82-10.06-.84l1-2.48A5.39,5.39,0,0,0,967,30.41a3.75,3.75,0,0,0,1.39-.33,1.56,1.56,0,0,0,.17-2.89,9.9,9.9,0,0,0-2.06-.79c-1.23-.39-2.5-0.67-3.7-1.15A3.3,3.3,0,0,1,960.58,22a3.43,3.43,0,0,1,2.16-3.33,8.14,8.14,0,0,1,7.65.5A6.62,6.62,0,0,1,971.48,20.19Z"/><path class="cls-4" d="M1002.22,31.64c-2.11-.3-2.69-1-2.7-2.8,0-2.11.05-4.22-.05-6.32A2.8,2.8,0,0,0,995.3,20a2.59,2.59,0,0,0-1.71,2.59c0,2.59,0,5.17,0,7.76,0,0.4,0,.8,0,1.55L991,30.56V18.06L993.14,19l0-.25a34.47,34.47,0,0,1,5-.5c2.67,0.1,4.15,1.84,4.16,4.48C1002.23,25.66,1002.22,28.61,1002.22,31.64Z"/><path class="cls-4" d="M955.69,21.15a2.7,2.7,0,0,1-.42.89c-0.56.46-.76,1-0.18,1.48a1.05,1.05,0,0,0,1.71-.24,2.87,2.87,0,0,0,.23-2.15,2.85,2.85,0,0,0-1.8-1.37c-2.09-.42-3.89,1.24-4.07,3.52a7,7,0,0,0,6.56,7.38c0.4,0,.81,0,1.29,0l0.09,0.85c-5.43,1.55-11.11-2.79-10.78-8.13,0.25-4.06,5.42-6.79,8.93-4.71a3.64,3.64,0,0,1,1.65,4.4A3,3,0,0,1,955.66,25a2.14,2.14,0,0,1-2-1.9,1.77,1.77,0,0,1,1.3-2A2.91,2.91,0,0,1,955.69,21.15Z"/><path class="cls-4" d="M973.55,18L976,19.22V31.54a2.13,2.13,0,0,1-2.56-2.16q0-5,0-10.07C973.47,19,973.51,18.65,973.55,18Z"/><path class="cls-4" d="M976,16c-2.24-.19-2.89-1.26-2.37-4.08L976,13.09V16Z"/></g><g id="bocqVh.tif"><path class="cls-4" d="M894.62,38.2V8.3h29.9V38.2h-29.9Zm21.69-7.72c-0.21,0-.36,0-0.51,0-0.35,0-.7,0-1,0a8.78,8.78,0,0,1-8.2-8.11,5.92,5.92,0,0,1,1.12-4.09,4,4,0,0,1,4.45-1.38,2.88,2.88,0,0,1,1.47,4,1.56,1.56,0,0,1-1.9.8,1.18,1.18,0,0,1-.76-1.1,1,1,0,0,1,.74-1,0.47,0.47,0,0,0,.28-0.2,1.56,1.56,0,0,0-.08-1.13,2,2,0,0,0-1.45.41,2.34,2.34,0,0,0-1,2.31,2.63,2.63,0,0,0,1.75,2.2,3.76,3.76,0,0,0,4.76-2,4.78,4.78,0,0,0-2.27-6.11,6.5,6.5,0,0,0-4.07-.6,7.56,7.56,0,0,0-6.24,4.95,9,9,0,0,0,2.92,9.86,12.91,12.91,0,0,0,6.1,2.55,12,12,0,0,0,3.43.07,0.43,0.43,0,0,0,.51-0.38C916.32,31.22,916.31,30.9,916.31,30.48Z"/></g><g id="GIBZdh.tif"><path class="cls-4" d="M27,6.69l1.3,0.13A16.52,16.52,0,0,1,42.58,19.23a16.3,16.3,0,0,1,.35,6.19A16.51,16.51,0,0,1,31.43,39a15.81,15.81,0,0,1-4.08.71,3.19,3.19,0,0,0-.38.06H26.14a3.17,3.17,0,0,0-.38-0.06,15.32,15.32,0,0,1-3.23-.47,16.27,16.27,0,0,1-8.7-5.49,16.11,16.11,0,0,1-3.71-8.85L10,23.67V22.83a3.17,3.17,0,0,0,.06-0.38,15.3,15.3,0,0,1,.47-3.23A16.53,16.53,0,0,1,24.84,6.82l1.3-.13H27ZM21.65,31c0.86,0,1.69,0,2.52,0a0.26,0.26,0,0,0,.32-0.32c0-1.32,0-2.64,0-4,0-.12,0-0.23,0-0.38h0.39c1.14,0,2.28,0,3.42-.05a4,4,0,0,0,3.89-3.64,4.11,4.11,0,0,0-4.12-4.78c-2,0-4.09,0-6.13,0l-0.27,0V31Z"/><path class="cls-4" d="M145.51,22.3h7.54c0-.14,0-0.27,0-0.41,0-1.81,0-3.61,0-5.42a0.32,0.32,0,0,1,.39-0.39c0.88,0,1.77,0,2.65,0a0.25,0.25,0,0,1,.31.3q0,7.64,0,15.27c0,0.08,0,.15,0,0.25l-0.27,0c-0.9,0-1.81,0-2.71,0a0.27,0.27,0,0,1-.33-0.34c0-2,0-3.95,0-5.92,0-.46,0-0.46-0.45-0.46H145.9c-0.39,0-.39,0-0.39.4q0,3,0,5.92V31.9h-3.29c0-.1,0-0.2,0-0.31q0-7.58,0-15.15a0.29,0.29,0,0,1,.35-0.36c0.88,0,1.77,0,2.65,0a0.26,0.26,0,0,1,.32.32c0,1.84,0,3.67,0,5.51V22.3Z"/><path class="cls-4" d="M54.52,26.27V31.9H51.23c0-.11,0-0.23,0-0.34q0-7.55,0-15.09c0-.24,0-0.39.32-0.38,2.53,0,5.06,0,7.59,0a4.77,4.77,0,0,1,4.76,4.7A5,5,0,0,1,62.3,25a4.79,4.79,0,0,1-3.11,1.24c-1.4.05-2.8,0-4.2,0Zm0-5.13c0,0.62,0,1.25,0,1.87,0,0.25.08,0.32,0.32,0.32,1.08,0,2.16,0,3.24,0A3.74,3.74,0,0,0,59,23.19a2.08,2.08,0,0,0,1.47-2.5A2.18,2.18,0,0,0,58.22,19c-1.14,0-2.28,0-3.42,0-0.23,0-.28.09-0.28,0.3C54.53,19.91,54.52,20.53,54.52,21.14Z"/><path class="cls-4" d="M96.19,21.86V21.52c0-1.7,0-3.39,0-5.09,0-.25.05-0.35,0.32-0.35,0.8,0,1.61,0,2.41,0a0.23,0.23,0,0,1,.27.28q0,7.68,0,15.36s0,0.1,0,.17h-3V30.47L95.64,31a4.69,4.69,0,0,1-6.35-.08,5.86,5.86,0,0,1-1.67-3.62,7.67,7.67,0,0,1,.47-4,4.64,4.64,0,0,1,4.11-3.05,4.26,4.26,0,0,1,3.74,1.49,1.4,1.4,0,0,1,.13.22Zm0,4.31c0-.51,0-1,0-1.52a1.12,1.12,0,0,0-.51-1.06l-0.21-.16a3,3,0,0,0-4,.25,3.32,3.32,0,0,0-.87,2,3.67,3.67,0,0,0,.88,3,3.09,3.09,0,0,0,4.57-.34,0.63,0.63,0,0,0,.1-0.36C96.19,27.4,96.19,26.78,96.19,26.17Z"/><path class="cls-4" d="M79.91,32.17a5.67,5.67,0,0,1-5.07-2.56,6.11,6.11,0,0,1-1-4.08,5.8,5.8,0,0,1,1.84-3.82A5.64,5.64,0,0,1,79,20.25a6.62,6.62,0,0,1,3.66.5,5.5,5.5,0,0,1,3.22,4.15,6.13,6.13,0,0,1-1,5A5.52,5.52,0,0,1,81,32.11l-0.53.06H79.91ZM79.7,22.81A2.6,2.6,0,0,0,77.58,24a4,4,0,0,0,0,4.39,2.86,2.86,0,0,0,4.61,0,3.94,3.94,0,0,0,.5-3.44A2.9,2.9,0,0,0,79.7,22.81Z"/><path class="cls-4" d="M176.3,31.92h-2.78a0.3,0.3,0,0,1-.18-0.17,0.58,0.58,0,0,1,0-.23q0-5.31,0-10.63c0-.42,0-0.42.42-0.42h2.54v1.47c0.24-.22.42-0.38,0.61-0.53a4.94,4.94,0,0,1,3-1.18,7,7,0,0,1,1.79.13A3,3,0,0,1,184,23.27c0,1.53,0,3.06,0,4.58,0,1.25,0,2.5,0,3.75a0.26,0.26,0,0,1-.32.32c-0.87,0-1.74,0-2.66,0V31.56q0-3.21,0-6.43a4.18,4.18,0,0,0-.07-0.8,1.74,1.74,0,0,0-1.77-1.5A3.28,3.28,0,0,0,176.47,24a0.77,0.77,0,0,0-.17.48c0,2.36,0,4.72,0,7.08v0.4Z"/><path class="cls-4" d="M105.26,20.49c0,0.13,0,.25,0,0.36q0,3.36,0,6.73a2,2,0,0,0,.42,1.33,2.09,2.09,0,0,0,1.86.65,3.35,3.35,0,0,0,2.29-1.07,0.76,0.76,0,0,0,.23-0.58c0-2.34,0-4.68,0-7v-0.4H113V31.9h-2.92V30.45l-0.31.27A5.45,5.45,0,0,1,104.62,32a2.9,2.9,0,0,1-2.3-2.83c0-1.61,0-3.21,0-4.82,0-1.19,0-2.38,0-3.57,0-.25.06-0.35,0.33-0.34,0.78,0,1.57,0,2.35,0Z"/><path class="cls-4" d="M162.48,20.47c0,0.16,0,.28,0,0.4q0,3.36,0,6.73a1.87,1.87,0,0,0,2.23,2,3.24,3.24,0,0,0,2.35-1.11,0.85,0.85,0,0,0,.2-0.52c0-2.35,0-4.7,0-7.05V20.49h2.93V31.9h-2.92V30.46l-0.32.26a5.45,5.45,0,0,1-5.14,1.3,2.92,2.92,0,0,1-2.29-2.84c0-1.15,0-2.3,0-3.45,0-1.63,0-3.25,0-4.88,0-.28.05-0.4,0.37-0.39C160.73,20.48,161.59,20.47,162.48,20.47Z"/><path class="cls-4" d="M123.95,28.33l1.91,1.79c-1,1.69-3.83,2.51-6.29,1.85a5.77,5.77,0,0,1-4.26-5.58,5.73,5.73,0,0,1,4.16-5.92c2.43-.72,5.14,0,6.4,1.78L123.95,24a2.85,2.85,0,0,0-1.57-1.1,3.08,3.08,0,0,0-4,2.61,3.7,3.7,0,0,0,.68,2.89,3.07,3.07,0,0,0,4.67.12Z"/><path class="cls-4" d="M131.52,17.34v1.38c0,0.46,0,.91,0,1.37,0,0.29.06,0.4,0.38,0.39,0.63,0,1.27,0,1.93,0v2.59h-1.91c-0.39,0-.39,0-0.39.39q0,2.28,0,4.56c0,1.45.79,1.94,2.12,1.27l0.24,0.81,0.27,1c0.13,0.48.13,0.48-.32,0.72a4.18,4.18,0,0,1-2.14.41,5.14,5.14,0,0,1-1.17-.15,2.47,2.47,0,0,1-1.88-2.18,6.29,6.29,0,0,1-.06-0.95c0-1.83,0-3.65,0-5.48,0-.3-0.08-0.4-0.38-0.38-0.49,0-1,0-1.51,0V20.47h1.48c0.4,0,.4,0,0.4-0.41,0-.9,0-1.8,0-2.73h3Z"/><path class="cls-4" d="M192.84,29.26c0.19,0.7.39,1.38,0.56,2.06a0.33,0.33,0,0,1-.13.29,7.68,7.68,0,0,1-1.41.5A4.56,4.56,0,0,1,189.7,32a2.5,2.5,0,0,1-1.87-2.16,6,6,0,0,1-.06-0.95c0-1.8,0-3.59,0-5.39,0-.56,0-0.48-0.5-0.49h-1.38V20.47h1c0.84,0,.84,0,0.84-0.86q0-1,0-1.94V17.33h2.93c0,0.11,0,.21,0,0.32,0,0.84,0,1.69,0,2.53a0.24,0.24,0,0,0,.29.29c0.66,0,1.33,0,2,0V23h-2a0.21,0.21,0,0,0-.27.25c0,1.67,0,3.33,0,5a1.17,1.17,0,0,0,1.76,1.13Z"/><path class="cls-4" d="M69,20.47v1.44c0.55-.4,1.07-0.83,1.65-1.18a3.64,3.64,0,0,1,2-.52v2.85a9.73,9.73,0,0,0-1.29,0,3.82,3.82,0,0,0-2.07,1,0.77,0.77,0,0,0-.27.62c0,2.29,0,4.58,0,6.87v0.37a0.66,0.66,0,0,1-.15,0H66.25A0.19,0.19,0,0,1,66,31.7c0-.06,0-0.12,0-0.18q0-5.33,0-10.65c0-.4,0-0.4.41-0.4H69Z"/><path class="cls-4" d="M24.5,23.77V20.36l0,0c1.15,0,2.3,0,3.43.08a1.51,1.51,0,0,1,1.33,1.67,1.61,1.61,0,0,1-1.41,1.62,5.77,5.77,0,0,1-.95.06H24.5Z"/></g><path class="cls-4" d="M607.42,9.82l-0.46-1a3.37,3.37,0,0,0-2.57-2.06,2,2,0,0,1-.79-0.38,2.34,2.34,0,0,0-2-.41,5.25,5.25,0,0,0-2.34,1.29,11.48,11.48,0,0,0-2.9,5.23c-0.09.28-.18,0.56-0.27,0.84l-3.56,1.14c-0.09.55-.18,1.07-0.25,1.6q-0.51,3.8-1,7.6c-0.33,2.53-1.49,9.54-1.49,9.54s2.75,0.47,3.76.66c4.34,0.82,8.81,1.63,13.15,2.47a4.65,4.65,0,0,0,.56.06l1.4-26.9Zm-3.81-1.73a6.83,6.83,0,0,1,.38,2.84l-2.9.89A4,4,0,0,1,603.61,8.09Zm-6.23,4.19a11.21,11.21,0,0,1,2-3.81,4.61,4.61,0,0,1,2.2-1.5c0.89-.28,1.16.14,1.19,0.22-1.91,1.14-2.55,3-3,5.05l-2.43.78A4.84,4.84,0,0,1,597.38,12.28Zm5.75,8a13.14,13.14,0,0,0-1.82-.4,4,4,0,0,0-1.58.16,1.15,1.15,0,0,0-.44,1.91,8.52,8.52,0,0,0,1,.81c0.49,0.4,1,.79,1.46,1.21,2.05,1.84,1.56,5.54-.27,7A4.48,4.48,0,0,1,598,32a6.46,6.46,0,0,1-2.81-.92,15.38,15.38,0,0,1-1.21-1l0.82-2.75C596,28,597,28.93,598.34,28.54a1.32,1.32,0,0,0,.16-2,5.09,5.09,0,0,0-.93-0.85c-3.42-2.44-2-6.53.13-8.09a7,7,0,0,1,5.86-1.05,1.93,1.93,0,0,1,.42.16,2,2,0,0,1,.29.24ZM605,10.63l-0.38-2.73c0.94,0.14,1.56.91,1.76,2.21Z"/><path class="cls-4" d="M610.82,11.4L609.31,10l-1.2,26.48,5.28-1.17,3.5-.79-3.38-22.81Z"/><path class="cls-4" d="M696.08,18.42a86.47,86.47,0,0,0-3.25,8.4s-0.09-.09-0.13-0.1c-0.3-2.84-.6-5.73-0.89-8.54a12.55,12.55,0,0,0-3.91,0c0,0.25,0,.51.1,0.77q1,5.46,2,10.91a1.72,1.72,0,0,1-.28,1.36,7,7,0,0,1-2.85,2.43c-0.32.15-.64,0.36-1,0.53,0.32,1.08.63,2.2,0.94,3.2h0.54a2,2,0,0,0,.21-0.21,9.52,9.52,0,0,0,4.48-3.54,28.39,28.39,0,0,0,2.36-3.75c1.87-3.77,3.64-7.45,5.44-11.25a0.55,0.55,0,0,1,.11-0.25h-3.89Z"/><path class="cls-4" d="M667.46,17.76a4.52,4.52,0,0,0-3.17,1.31,4.23,4.23,0,0,0-.52.73c-0.08-.06-0.15.09-0.23,0a12.65,12.65,0,0,1,.12-1.41h-3.22q-1.72,9-3.43,18h3.77c0.34-2,.67-3.45,1-5.21a0.3,0.3,0,0,1,.18,0,1.37,1.37,0,0,1,.17.06,6.06,6.06,0,0,0,6.39-1.57,9.31,9.31,0,0,0,2.6-5.15,8.09,8.09,0,0,0-.21-4.36A3.47,3.47,0,0,0,667.46,17.76Zm-1.78,10a2.21,2.21,0,0,1-3.29.42,30.17,30.17,0,0,1,1-4.95,4,4,0,0,1,1.34-1.89,1.57,1.57,0,0,1,1.69-.29,1.51,1.51,0,0,1,.84,1.4A7.42,7.42,0,0,1,665.68,27.75Z"/><path class="cls-4" d="M641.5,17.76a4.78,4.78,0,0,0-3.32,1.18c-0.2.17-.4,0.42-0.72,0.7,0.37-2.53,1-5.22,1.3-7.22h-3.66c-0.54,2-3.61,18-3.51,19h3.61c0.29-1,.56-3,0.85-4.44,0.23-1.12.45-2.28,0.75-3.37a4.38,4.38,0,0,1,1.43-2.27,1.48,1.48,0,0,1,1.67-.33,1.36,1.36,0,0,1,.59,1.41,3,3,0,0,1-.06.54c-0.18,1-.35,2.13-0.54,3.17-0.31,1.71-.63,3.3-1,5.3h3.73c0.08-1,.16-0.55.21-0.78,0.45-2.39.93-4.81,1.32-7.22a13.51,13.51,0,0,0,.17-3A2.76,2.76,0,0,0,641.5,17.76Z"/><path class="cls-4" d="M657.91,22.43a4.76,4.76,0,0,0-4.18-4.62,6.51,6.51,0,0,0-5.16,1.43,8.77,8.77,0,0,0-3.1,8.33,4.54,4.54,0,0,0,3.84,3.93,6.61,6.61,0,0,0,5.3-1.24,8.8,8.8,0,0,0,3.3-7.11C657.91,22.91,657.92,22.67,657.91,22.43Zm-4.77,4.42A4.69,4.69,0,0,1,652,28.31a1.58,1.58,0,0,1-2.54-.81,3.07,3.07,0,0,1-.18-0.88,7.89,7.89,0,0,1,1-4.41A3.92,3.92,0,0,1,651.43,21a1.57,1.57,0,0,1,2.45.9,7.8,7.8,0,0,1,.2,1.08A9.69,9.69,0,0,1,653.13,26.85Z"/><path class="cls-4" d="M687.18,17.83c-0.9,0-1.68,0-2.5,0a3.36,3.36,0,0,1,1.07-2.38c0.7-.61,1.52-0.37,2.4-0.29l0.72-2.87a4.93,4.93,0,0,0-.61-0.2c-2.91-.53-5.4.41-6.64,3.21a16.11,16.11,0,0,0-.58,1.8c-0.09.28-.16,0.57-0.24,0.86l-1.68.12-0.52,2.77c0.62,0,1.14.12,1.69,0.15-0.66,3.51-1.3,6.42-1.95,10.42h3.79c0.67-4,1.33-7,2-11h2.55C686.84,19.42,687,18.8,687.18,17.83Z"/><path class="cls-4" d="M627.33,20.82a2.93,2.93,0,0,1,1.23-.16c0.68,0.06,1.35.21,2.11,0.34l0.83-2.58a7.32,7.32,0,0,0-4.36-.55,5.29,5.29,0,0,0-3.37,1.73,3.67,3.67,0,0,0,.4,5.38c0.44,0.36.95,0.64,1.41,1a4.65,4.65,0,0,1,.9.74,1.14,1.14,0,0,1-.59,1.92,3.26,3.26,0,0,1-1.42.06c-0.78-.14-1.54-0.41-2.38-0.64l-0.87,2.55a2.51,2.51,0,0,0,.33.25,4.86,4.86,0,0,0,.66.29,8.3,8.3,0,0,0,4.8.19,6.89,6.89,0,0,0,2.1-1,3.88,3.88,0,0,0,.05-6.22c-0.43-.32-0.9-0.6-1.35-0.91a5.39,5.39,0,0,1-.86-0.65A1,1,0,0,1,627.33,20.82Z"/><path class="cls-4" d="M671.39,31.42h3.78c0.84-4,1.68-9,2.53-13h-3.82C673,22.42,672.16,27.42,671.39,31.42Z"/><path class="cls-4" d="M676.61,12.39a2.15,2.15,0,0,0-2.15,2.21,1.75,1.75,0,0,0,1.82,1.91,2.2,2.2,0,0,0,2.23-2.24A1.87,1.87,0,0,0,676.61,12.39Z"/></svg>
